Rosario-Bold.ufo
<glyph name="dollar" format="2">
  <advance width="536"/>
  <unicode hex="0024"/>
  <note>
dollar
</note>
  <outline>
    <contour>
      <point x="489" y="644" type="line"/>
      <point x="429" y="686"/>
      <point x="357" y="706"/>
      <point x="289" y="706" type="curve" smooth="yes"/>
      <point x="159" y="706"/>
      <point x="43" y="632"/>
      <point x="43" y="495" type="curve" smooth="yes"/>
      <point x="43" y="359"/>
      <point x="152" y="329"/>
      <point x="241" y="296" type="curve" smooth="yes"/>
      <point x="303" y="273"/>
      <point x="355" y="251"/>
      <point x="355" y="190" type="curve" smooth="yes"/>
      <point x="355" y="119"/>
      <point x="303" y="85"/>
      <point x="238" y="85" type="curve" smooth="yes"/>
      <point x="182" y="85"/>
      <point x="117" y="110"/>
      <point x="66" y="157" type="curve"/>
      <point x="19" y="46" type="line"/>
      <point x="86" y="6"/>
      <point x="163" y="-14"/>
      <point x="234" y="-14" type="curve" smooth="yes"/>
      <point x="377" y="-14"/>
      <point x="501" y="64"/>
      <point x="501" y="215" type="curve" smooth="yes"/>
      <point x="501" y="360"/>
      <point x="386" y="392"/>
      <point x="295" y="426" type="curve" smooth="yes"/>
      <point x="237" y="448"/>
      <point x="189" y="469"/>
      <point x="189" y="524" type="curve" smooth="yes"/>
      <point x="189" y="581"/>
      <point x="234" y="608"/>
      <point x="289" y="608" type="curve" smooth="yes"/>
      <point x="333" y="608"/>
      <point x="383" y="590"/>
      <point x="420" y="558" type="curve"/>
    </contour>
    <contour>
      <point x="291" y="43" type="line"/>
      <point x="227" y="43" type="line"/>
      <point x="183" y="-128" type="line"/>
      <point x="275" y="-128" type="line"/>
    </contour>
    <contour>
      <point x="248" y="674" type="line"/>
      <point x="316" y="674" type="line"/>
      <point x="355" y="834" type="line"/>
      <point x="261" y="834" type="line"/>
    </contour>
  </outline>
</glyph>
<glyph name="quotesingle" format="2">
  <advance width="226"/>
  <unicode hex="0027"/>
  <note>
quotesingle
</note>
  <outline>
    <contour>
      <point x="100" y="449" type="curve"/>
      <point x="121" y="449" type="line"/>
      <point x="157" y="559" type="line"/>
      <point x="157" y="732" type="line"/>
      <point x="63" y="732" type="line"/>
      <point x="63" y="559" type="line" smooth="yes"/>
      <point x="63" y="558"/>
      <point x="98" y="457"/>
    </contour>
  </outline>
</glyph>
<glyph name="asterisk" format="2">
  <advance width="510"/>
  <unicode hex="002A"/>
  <note>
asterisk
</note>
  <outline>
    <contour>
      <point x="197" y="741" type="line"/>
      <point x="226" y="585" type="line"/>
      <point x="284" y="585" type="line"/>
      <point x="308" y="741" type="line"/>
    </contour>
    <contour>
      <point x="284" y="585" type="line"/>
      <point x="302" y="528" type="line"/>
      <point x="458" y="556" type="line"/>
      <point x="417" y="664" type="line"/>
    </contour>
    <contour>
      <point x="86" y="659" type="line"/>
      <point x="56" y="552" type="line"/>
      <point x="208" y="531" type="line"/>
      <point x="226" y="585" type="line"/>
    </contour>
    <contour>
      <point x="208" y="531" type="line"/>
      <point x="97" y="419" type="line"/>
      <point x="185" y="356" type="line"/>
      <point x="255" y="495" type="line"/>
    </contour>
    <contour>
      <point x="255" y="495" type="line"/>
      <point x="326" y="352" type="line"/>
      <point x="415" y="423" type="line"/>
      <point x="302" y="528" type="line"/>
    </contour>
  </outline>
</glyph>
<glyph name="zero" format="2">
  <advance width="564"/>
  <unicode hex="0030"/>
  <note>
zero
</note>
  <outline>
    <contour>
      <point x="287" y="510" type="curve" smooth="yes"/>
      <point x="130" y="510"/>
      <point x="32" y="406"/>
      <point x="32" y="249" type="curve" smooth="yes"/>
      <point x="32" y="96"/>
      <point x="124" y="-12"/>
      <point x="277" y="-12" type="curve" smooth="yes"/>
      <point x="430" y="-12"/>
      <point x="532" y="96"/>
      <point x="532" y="249" type="curve" smooth="yes"/>
      <point x="532" y="405"/>
      <point x="443" y="510"/>
    </contour>
    <contour>
      <point x="282" y="429" type="curve" smooth="yes"/>
      <point x="379" y="429"/>
      <point x="400" y="327"/>
      <point x="400" y="249" type="curve" smooth="yes"/>
      <point x="400" y="168"/>
      <point x="384" y="69"/>
      <point x="282" y="69" type="curve" smooth="yes"/>
      <point x="181" y="69"/>
      <point x="163" y="168"/>
      <point x="163" y="249" type="curve" smooth="yes"/>
      <point x="163" y="326"/>
      <point x="187" y="429"/>
    </contour>
  </outline>
</glyph>
<glyph name="one" format="2">
  <advance width="389"/>
  <unicode hex="0031"/>
  <note>
one
</note>
  <outline>
    <contour>
      <point x="43" y="99" type="line"/>
      <point x="43" y="0" type="line"/>
      <point x="377" y="0" type="line"/>
      <point x="377" y="99" type="line"/>
      <point x="273" y="99" type="line"/>
      <point x="273" y="498" type="line"/>
      <point x="195" y="498" type="line"/>
      <point x="22" y="413" type="line"/>
      <point x="43" y="349" type="line"/>
      <point x="152" y="378" type="line"/>
      <point x="152" y="99" type="line"/>
    </contour>
  </outline>
</glyph>
<glyph name="seven" format="2">
  <advance width="445"/>
  <unicode hex="0037"/>
  <note>
seven
</note>
  <outline>
    <contour>
      <point x="36" y="497" type="line"/>
      <point x="4" y="386" type="line"/>
      <point x="318" y="386" type="line"/>
      <point x="12" y="-189" type="line"/>
      <point x="153" y="-189" type="line"/>
      <point x="438" y="434" type="line"/>
      <point x="438" y="497" type="line"/>
    </contour>
  </outline>
</glyph>
<glyph name="eight" format="2">
  <advance width="489"/>
  <unicode hex="0038"/>
  <note>
eight
</note>
  <guideline x="330" y="548" angle="90"/>
  <guideline x="462" y="542" angle="90"/>
  <guideline x="48" y="542" angle="90"/>
  <guideline x="180" y="542" angle="90"/>
  <outline>
    <contour>
      <point x="252" y="732" type="curve" smooth="yes"/>
      <point x="153" y="732"/>
      <point x="51" y="673"/>
      <point x="51" y="550" type="curve" smooth="yes"/>
      <point x="51" y="453"/>
      <point x="115" y="390"/>
      <point x="183" y="340" type="curve" smooth="yes"/>
      <point x="255" y="287"/>
      <point x="330" y="250"/>
      <point x="330" y="176" type="curve" smooth="yes"/>
      <point x="330" y="107"/>
      <point x="284" y="68"/>
      <point x="231" y="68" type="curve" smooth="yes"/>
      <point x="180" y="68"/>
      <point x="138" y="104"/>
      <point x="138" y="176" type="curve" smooth="yes"/>
      <point x="138" y="227"/>
      <point x="167" y="280"/>
      <point x="229" y="314" type="curve"/>
      <point x="169" y="373" type="line"/>
      <point x="71" y="319"/>
      <point x="27" y="245"/>
      <point x="27" y="173" type="curve" smooth="yes"/>
      <point x="27" y="51"/>
      <point x="132" y="-12"/>
      <point x="240" y="-12" type="curve" smooth="yes"/>
      <point x="353" y="-12"/>
      <point x="462" y="52"/>
      <point x="462" y="185" type="curve" smooth="yes"/>
      <point x="462" y="313"/>
      <point x="367" y="370"/>
      <point x="287" y="428" type="curve" smooth="yes"/>
      <point x="231" y="468"/>
      <point x="180" y="498"/>
      <point x="180" y="562" type="curve" smooth="yes"/>
      <point x="180" y="619"/>
      <point x="213" y="653"/>
      <point x="256" y="653" type="curve" smooth="yes"/>
      <point x="297" y="653"/>
      <point x="325" y="625"/>
      <point x="325" y="567" type="curve" smooth="yes"/>
      <point x="325" y="521"/>
      <point x="300" y="472"/>
      <point x="254" y="446" type="curve"/>
      <point x="314" y="390" type="line"/>
      <point x="395" y="444"/>
      <point x="435" y="512"/>
      <point x="435" y="577" type="curve" smooth="yes"/>
      <point x="435" y="680"/>
      <point x="345" y="732"/>
    </contour>
  </outline>
</glyph>
<glyph name="nine" format="2">
  <advance width="556"/>
  <unicode hex="0039"/>
  <note>
nine
</note>
  <outline>
    <contour>
      <point x="285" y="511" type="curve" smooth="yes"/>
      <point x="120" y="511"/>
      <point x="34" y="386"/>
      <point x="34" y="270" type="curve" smooth="yes"/>
      <point x="34" y="170"/>
      <point x="98" y="78"/>
      <point x="233" y="78" type="curve" smooth="yes"/>
      <point x="279" y="78"/>
      <point x="328" y="91"/>
      <point x="376" y="119" type="curve"/>
      <point x="391" y="203" type="line"/>
      <point x="351" y="176"/>
      <point x="311" y="163"/>
      <point x="276" y="163" type="curve" smooth="yes"/>
      <point x="200" y="163"/>
      <point x="166" y="223"/>
      <point x="166" y="285" type="curve" smooth="yes"/>
      <point x="166" y="355"/>
      <point x="205" y="428"/>
      <point x="281" y="428" type="curve" smooth="yes"/>
      <point x="343" y="428"/>
      <point x="390" y="376"/>
      <point x="390" y="265" type="curve" smooth="yes"/>
      <point x="390" y="123"/>
      <point x="299" y="-54"/>
      <point x="59" y="-146" type="curve"/>
      <point x="87" y="-211" type="line"/>
      <point x="308" y="-171"/>
      <point x="522" y="27"/>
      <point x="522" y="257" type="curve" smooth="yes"/>
      <point x="522" y="431"/>
      <point x="411" y="511"/>
    </contour>
  </outline>
</glyph>
<glyph name="less" format="2">
  <advance width="630"/>
  <unicode hex="003C"/>
  <note>
less
</note>
  <outline>
    <contour>
      <point x="66" y="275" type="line"/>
      <point x="66" y="223" type="line"/>
      <point x="564" y="-12" type="line"/>
      <point x="564" y="76" type="line"/>
      <point x="196" y="249" type="line"/>
      <point x="564" y="419" type="line"/>
      <point x="564" y="509" type="line"/>
    </contour>
  </outline>
</glyph>
<glyph name="greater" format="2">
  <advance width="630"/>
  <unicode hex="003E"/>
  <note>
greater
</note>
  <outline>
    <contour>
      <point x="66" y="76" type="line"/>
      <point x="66" y="-12" type="line"/>
      <point x="564" y="223" type="line"/>
      <point x="564" y="275" type="line"/>
      <point x="66" y="509" type="line"/>
      <point x="66" y="419" type="line"/>
      <point x="434" y="249" type="line"/>
    </contour>
  </outline>
</glyph>
<glyph name="at" format="2">
  <advance width="1034"/>
  <unicode hex="0040"/>
  <note>
at
</note>
  <guideline x="128" y="571" angle="90"/>
  <guideline x="45" y="571" angle="90"/>
  <outline>
    <contour>
      <point x="556" y="736" type="curve" smooth="yes"/>
      <point x="216" y="736"/>
      <point x="45" y="463"/>
      <point x="45" y="204" type="curve" smooth="yes"/>
      <point x="45" y="-28"/>
      <point x="184" y="-249"/>
      <point x="463" y="-249" type="curve" smooth="yes"/>
      <point x="508" y="-249"/>
      <point x="550" y="-243"/>
      <point x="592" y="-232" type="curve"/>
      <point x="572" y="-163" type="line"/>
      <point x="536" y="-173"/>
      <point x="500" y="-178"/>
      <point x="463" y="-178" type="curve" smooth="yes"/>
      <point x="238" y="-178"/>
      <point x="128" y="4"/>
      <point x="128" y="200" type="curve" smooth="yes"/>
      <point x="128" y="424"/>
      <point x="273" y="665"/>
      <point x="556" y="665" type="curve" smooth="yes"/>
      <point x="747" y="665"/>
      <point x="906" y="543"/>
      <point x="906" y="331" type="curve" smooth="yes"/>
      <point x="906" y="201"/>
      <point x="841" y="66"/>
      <point x="740" y="66" type="curve" smooth="yes"/>
      <point x="698" y="66"/>
      <point x="686" y="84"/>
      <point x="686" y="109" type="curve" smooth="yes"/>
      <point x="686" y="136"/>
      <point x="691" y="161"/>
      <point x="742" y="500" type="curve"/>
      <point x="679" y="500" type="line"/>
      <point x="653" y="462" type="line"/>
      <point x="617" y="497"/>
      <point x="564" y="509"/>
      <point x="532" y="509" type="curve" smooth="yes"/>
      <point x="362" y="509"/>
      <point x="279" y="347"/>
      <point x="279" y="201" type="curve" smooth="yes"/>
      <point x="279" y="87"/>
      <point x="327" y="-12"/>
      <point x="444" y="-12" type="curve" smooth="yes"/>
      <point x="487" y="-12"/>
      <point x="545" y="7"/>
      <point x="584" y="59" type="curve"/>
      <point x="588" y="59" type="line"/>
      <point x="623" y="0"/>
      <point x="675" y="-7"/>
      <point x="734" y="-7" type="curve" smooth="yes"/>
      <point x="893" y="-7"/>
      <point x="989" y="167"/>
      <point x="989" y="331" type="curve" smooth="yes"/>
      <point x="989" y="587"/>
      <point x="792" y="736"/>
    </contour>
    <contour>
      <point x="538" y="427" type="curve" smooth="yes"/>
      <point x="564" y="427"/>
      <point x="589" y="419"/>
      <point x="616" y="402" type="curve"/>
      <point x="606" y="334" type="line" smooth="yes"/>
      <point x="586" y="204"/>
      <point x="552" y="70"/>
      <point x="467" y="70" type="curve" smooth="yes"/>
      <point x="415" y="70"/>
      <point x="396" y="132"/>
      <point x="396" y="204" type="curve" smooth="yes"/>
      <point x="396" y="340"/>
      <point x="453" y="427"/>
    </contour>
  </outline>
</glyph>
<glyph name="A" format="2">
  <advance width="631"/>
  <unicode hex="0041"/>
  <note>
A
</note>
  <anchor x="311" y="0" name="bottom"/>
  <anchor x="524" y="0" name="ogonek"/>
  <anchor x="311" y="732" name="top"/>
  <outline>
    <contour>
      <point x="370" y="732" type="line"/>
      <point x="261" y="732" type="line"/>
      <point x="2" y="0" type="line"/>
      <point x="118" y="0" type="line"/>
      <point x="191" y="210" type="line"/>
      <point x="409" y="210" type="line"/>
      <point x="481" y="0" type="line"/>
      <point x="629" y="0" type="line"/>
    </contour>
    <contour>
      <point x="300" y="558" type="line"/>
      <point x="376" y="308" type="line"/>
      <point x="225" y="308" type="line"/>
    </contour>
  </outline>
</glyph>
<glyph name="D" format="2">
  <advance width="699"/>
  <unicode hex="0044"/>
  <note>
D
</note>
  <anchor x="168" y="368" name="center"/>
  <anchor x="344" y="732" name="top"/>
  <outline>
    <contour>
      <point x="680" y="365" type="curve" smooth="yes"/>
      <point x="680" y="583"/>
      <point x="551" y="732"/>
      <point x="328" y="732" type="curve" smooth="yes"/>
      <point x="51" y="732" type="line"/>
      <point x="53" y="727"/>
      <point x="67" y="672"/>
      <point x="67" y="671" type="curve" smooth="yes"/>
      <point x="67" y="0" type="line"/>
      <point x="327" y="0" type="line" smooth="yes"/>
      <point x="543" y="0"/>
      <point x="680" y="152"/>
    </contour>
    <contour>
      <point x="532" y="361" type="curve" smooth="yes"/>
      <point x="532" y="226"/>
      <point x="473" y="99"/>
      <point x="321" y="99" type="curve" smooth="yes"/>
      <point x="205" y="99" type="line"/>
      <point x="205" y="633" type="line"/>
      <point x="319" y="633" type="line" smooth="yes"/>
      <point x="474" y="633"/>
      <point x="532" y="496"/>
    </contour>
  </outline>
</glyph>
<glyph name="E" format="2">
  <advance width="549"/>
  <unicode hex="0045"/>
  <note>
E
</note>
  <anchor x="311" y="0" name="bottom"/>
  <anchor x="422" y="0" name="ogonek"/>
  <anchor x="297" y="732" name="top"/>
  <outline>
    <contour>
      <point x="52" y="732" type="line"/>
      <point x="67" y="671" type="line"/>
      <point x="67" y="0" type="line"/>
      <point x="512" y="0" type="line"/>
      <point x="512" y="99" type="line"/>
      <point x="204" y="99" type="line"/>
      <point x="204" y="327" type="line"/>
      <point x="440" y="327" type="line"/>
      <point x="440" y="426" type="line"/>
      <point x="204" y="426" type="line"/>
      <point x="204" y="633" type="line"/>
      <point x="512" y="633" type="line"/>
      <point x="512" y="732" type="line"/>
    </contour>
  </outline>
</glyph>
<glyph name="F" format="2">
  <advance width="510"/>
  <unicode hex="0046"/>
  <note>
F
</note>
  <outline>
    <contour>
      <point x="53" y="732" type="line"/>
      <point x="67" y="671" type="line"/>
      <point x="67" y="0" type="line"/>
      <point x="206" y="0" type="line"/>
      <point x="206" y="327" type="line"/>
      <point x="419" y="327" type="line"/>
      <point x="419" y="426" type="line"/>
      <point x="206" y="426" type="line"/>
      <point x="206" y="633" type="line"/>
      <point x="482" y="633" type="line"/>
      <point x="482" y="732" type="line"/>
    </contour>
  </outline>
</glyph>
<glyph name="H" format="2">
  <advance width="714"/>
  <unicode hex="0048"/>
  <note>
H
</note>
  <anchor x="354" y="0" name="bottom"/>
  <anchor x="360" y="558" name="center"/>
  <anchor x="356" y="732" name="top"/>
  <outline>
    <contour>
      <point x="512" y="327" type="line"/>
      <point x="512" y="0" type="line"/>
      <point x="650" y="0" type="line"/>
      <point x="650" y="732" type="line"/>
      <point x="512" y="732" type="line"/>
      <point x="512" y="426" type="line"/>
      <point x="205" y="426" type="line"/>
      <point x="205" y="732" type="line"/>
      <point x="53" y="732" type="line"/>
      <point x="54" y="727"/>
      <point x="67" y="673"/>
      <point x="67" y="671" type="curve" smooth="yes"/>
      <point x="67" y="0" type="line"/>
      <point x="205" y="0" type="line"/>
      <point x="205" y="327" type="line"/>
    </contour>
  </outline>
</glyph>
<glyph name="J" format="2">
  <advance width="268"/>
  <unicode hex="004A"/>
  <note>
J
</note>
  <anchor x="132" y="732" name="top"/>
  <outline>
    <contour>
      <point x="53" y="732" type="line"/>
      <point x="67" y="671" type="line"/>
      <point x="67" y="47" type="line" smooth="yes"/>
      <point x="67" y="-34"/>
      <point x="61" y="-120"/>
      <point x="-36" y="-134" type="curve"/>
      <point x="-18" y="-209" type="line"/>
      <point x="179" y="-200"/>
      <point x="205" y="-70"/>
      <point x="205" y="98" type="curve" smooth="yes"/>
      <point x="205" y="732" type="line"/>
    </contour>
  </outline>
</glyph>
<glyph name="K" format="2">
  <advance width="583"/>
  <unicode hex="004B"/>
  <note>
K
</note>
  <anchor x="317" y="0" name="bottom"/>
  <outline>
    <contour>
      <point x="52" y="732" type="line"/>
      <point x="66" y="671" type="line"/>
      <point x="66" y="0" type="line"/>
      <point x="204" y="0" type="line"/>
      <point x="204" y="371" type="line"/>
      <point x="437" y="0" type="line"/>
      <point x="597" y="0" type="line"/>
      <point x="338" y="412" type="line"/>
      <point x="576" y="732" type="line"/>
      <point x="448" y="732" type="line"/>
      <point x="204" y="405" type="line"/>
      <point x="204" y="732" type="line"/>
    </contour>
  </outline>
</glyph>
<glyph name="L" format="2">
  <advance width="514"/>
  <unicode hex="004C"/>
  <note>
L
</note>
  <anchor x="294" y="0" name="bottom"/>
  <anchor x="136" y="377" name="center"/>
  <anchor x="137" y="732" name="top"/>
  <anchor x="172" y="494" name="topright"/>
  <outline>
    <contour>
      <point x="53" y="732" type="line"/>
      <point x="66" y="671" type="line"/>
      <point x="66" y="0" type="line"/>
      <point x="492" y="0" type="line"/>
      <point x="492" y="99" type="line"/>
      <point x="205" y="99" type="line"/>
      <point x="205" y="732" type="line"/>
    </contour>
  </outline>
</glyph>
<glyph name="R" format="2">
  <advance width="591"/>
  <unicode hex="0052"/>
  <note>
R
</note>
  <anchor x="311" y="0" name="bottom"/>
  <anchor x="283" y="732" name="top"/>
  <outline>
    <contour>
      <point x="51" y="732" type="line"/>
      <point x="66" y="671" type="line"/>
      <point x="66" y="0" type="line"/>
      <point x="203" y="0" type="line"/>
      <point x="203" y="326" type="line"/>
      <point x="258" y="326" type="line"/>
      <point x="461" y="0" type="line"/>
      <point x="617" y="0" type="line"/>
      <point x="393" y="347" type="line"/>
      <point x="474" y="367"/>
      <point x="549" y="447"/>
      <point x="549" y="532" type="curve" smooth="yes"/>
      <point x="549" y="684"/>
      <point x="435" y="732"/>
      <point x="302" y="732" type="curve" smooth="yes"/>
    </contour>
    <contour>
      <point x="203" y="632" type="line"/>
      <point x="289" y="632" type="line" smooth="yes"/>
      <point x="351" y="632"/>
      <point x="404" y="599"/>
      <point x="404" y="533" type="curve" smooth="yes"/>
      <point x="404" y="448"/>
      <point x="345" y="424"/>
      <point x="267" y="424" type="curve" smooth="yes"/>
      <point x="203" y="424" type="line"/>
    </contour>
  </outline>
</glyph>
<glyph name="T" format="2">
  <advance width="578"/>
  <unicode hex="0054"/>
  <note>
T
</note>
  <anchor x="287" y="0" name="bottom"/>
  <anchor x="287" y="366" name="center"/>
  <anchor x="287" y="732" name="top"/>
  <outline>
    <contour>
      <point x="216" y="633" type="line"/>
      <point x="216" y="0" type="line"/>
      <point x="359" y="0" type="line"/>
      <point x="359" y="633" type="line"/>
      <point x="565" y="633" type="line"/>
      <point x="565" y="732" type="line"/>
      <point x="13" y="732" type="line"/>
      <point x="13" y="633" type="line"/>
    </contour>
  </outline>
</glyph>
<glyph name="bracketleft" format="2">
  <advance width="351"/>
  <unicode hex="005B"/>
  <note>
bracketleft
</note>
  <outline>
    <contour>
      <point x="93" y="732" type="line"/>
      <point x="93" y="-132" type="line"/>
      <point x="311" y="-132" type="line"/>
      <point x="311" y="-73" type="line"/>
      <point x="212" y="-73" type="line"/>
      <point x="212" y="673" type="line"/>
      <point x="311" y="673" type="line"/>
      <point x="311" y="732" type="line"/>
    </contour>
  </outline>
</glyph>
<glyph name="backslash" format="2">
  <advance width="326"/>
  <unicode hex="005C"/>
  <note>
backslash
</note>
  <outline>
    <contour>
      <point x="-18" y="732" type="line"/>
      <point x="251" y="0" type="line"/>
      <point x="345" y="0" type="line"/>
      <point x="75" y="732" type="line"/>
    </contour>
  </outline>
</glyph>
<glyph name="grave" format="2">
  <advance width="281"/>
  <unicode hex="0060"/>
  <note>
grave
</note>
  <anchor x="217" y="497" name="_top"/>
  <outline>
    <contour>
      <point x="158" y="735" type="line"/>
      <point x="13" y="735" type="line"/>
      <point x="164" y="570" type="line"/>
      <point x="267" y="570" type="line"/>
    </contour>
  </outline>
</glyph>
<glyph name="a" format="2">
  <advance width="494"/>
  <unicode hex="0061"/>
  <note>
a
</note>
  <anchor x="236" y="0" name="bottom"/>
  <anchor x="418" y="0" name="ogonek"/>
  <anchor x="248" y="497" name="top"/>
  <outline>
    <contour>
      <point x="254" y="509" type="curve" smooth="yes"/>
      <point x="182" y="509"/>
      <point x="112" y="488"/>
      <point x="52" y="447" type="curve"/>
      <point x="101" y="368" type="line"/>
      <point x="136" y="395"/>
      <point x="183" y="426"/>
      <point x="229" y="426" type="curve" smooth="yes"/>
      <point x="279" y="426"/>
      <point x="301" y="409"/>
      <point x="301" y="356" type="curve" smooth="yes"/>
      <point x="301" y="291" type="line"/>
      <point x="186" y="291"/>
      <point x="30" y="262"/>
      <point x="30" y="117" type="curve" smooth="yes"/>
      <point x="30" y="35"/>
      <point x="93" y="-11"/>
      <point x="171" y="-11" type="curve" smooth="yes"/>
      <point x="233" y="-11"/>
      <point x="284" y="7"/>
      <point x="321" y="59" type="curve"/>
      <point x="333" y="10"/>
      <point x="362" y="-8"/>
      <point x="410" y="-8" type="curve" smooth="yes"/>
      <point x="441" y="-8"/>
      <point x="481" y="3"/>
      <point x="511" y="19" type="curve"/>
      <point x="492" y="87" type="line"/>
      <point x="479" y="82"/>
      <point x="466" y="79"/>
      <point x="453" y="79" type="curve" smooth="yes"/>
      <point x="434" y="79"/>
      <point x="421" y="89"/>
      <point x="421" y="128" type="curve" smooth="yes"/>
      <point x="421" y="347" type="line" smooth="yes"/>
      <point x="421" y="455"/>
      <point x="360" y="509"/>
    </contour>
    <contour>
      <point x="301" y="209" type="curve"/>
      <point x="301" y="186" type="line" smooth="yes"/>
      <point x="301" y="137"/>
      <point x="268" y="81"/>
      <point x="213" y="81" type="curve" smooth="yes"/>
      <point x="185" y="81"/>
      <point x="155" y="98"/>
      <point x="155" y="129" type="curve" smooth="yes"/>
      <point x="155" y="204"/>
      <point x="245" y="209"/>
    </contour>
  </outline>
</glyph>
<glyph name="i" format="2">
  <advance width="251"/>
  <unicode hex="0069"/>
  <note>
i
</note>
  <anchor x="126" y="0" name="bottom"/>
  <anchor x="126" y="0" name="ogonek"/>
  <outline>
    <contour>
      <point x="202" y="678" type="curve" smooth="yes"/>
      <point x="202" y="720"/>
      <point x="168" y="754"/>
      <point x="126" y="754" type="curve" smooth="yes"/>
      <point x="84" y="754"/>
      <point x="49" y="720"/>
      <point x="49" y="678" type="curve" smooth="yes"/>
      <point x="49" y="636"/>
      <point x="84" y="601"/>
      <point x="126" y="601" type="curve" smooth="yes"/>
      <point x="168" y="601"/>
      <point x="202" y="636"/>
    </contour>
    <contour>
      <point x="185" y="497" type="line"/>
      <point x="54" y="497" type="line"/>
      <point x="65" y="443" type="line"/>
      <point x="65" y="0" type="line"/>
      <point x="185" y="0" type="line"/>
    </contour>
  </outline>
</glyph>
<glyph name="m" format="2">
  <advance width="829"/>
  <unicode hex="006D"/>
  <note>
m
</note>
  <outline>
    <contour>
      <point x="170" y="508" type="curve"/>
      <point x="44" y="493" type="line"/>
      <point x="68" y="464"/>
      <point x="75" y="391"/>
      <point x="75" y="356" type="curve" smooth="yes"/>
      <point x="75" y="0" type="line"/>
      <point x="195" y="0" type="line"/>
      <point x="195" y="361" type="line"/>
      <point x="219" y="387"/>
      <point x="261" y="416"/>
      <point x="296" y="416" type="curve" smooth="yes"/>
      <point x="347" y="416"/>
      <point x="359" y="378"/>
      <point x="359" y="335" type="curve" smooth="yes"/>
      <point x="359" y="0" type="line"/>
      <point x="480" y="0" type="line"/>
      <point x="480" y="362" type="line"/>
      <point x="503" y="385"/>
      <point x="547" y="416"/>
      <point x="580" y="416" type="curve" smooth="yes"/>
      <point x="635" y="416"/>
      <point x="646" y="381"/>
      <point x="646" y="332" type="curve" smooth="yes"/>
      <point x="646" y="0" type="line"/>
      <point x="766" y="0" type="line"/>
      <point x="766" y="339" type="line" smooth="yes"/>
      <point x="766" y="437"/>
      <point x="736" y="510"/>
      <point x="626" y="510" type="curve" smooth="yes"/>
      <point x="562" y="510"/>
      <point x="509" y="482"/>
      <point x="464" y="437" type="curve"/>
      <point x="442" y="489"/>
      <point x="395" y="510"/>
      <point x="340" y="510" type="curve" smooth="yes"/>
      <point x="276" y="510"/>
      <point x="233" y="484"/>
      <point x="187" y="444" type="curve"/>
      <point x="184" y="465"/>
      <point x="179" y="488"/>
    </contour>
  </outline>
</glyph>
<glyph name="o" format="2">
  <advance width="536"/>
  <unicode hex="006F"/>
  <note>
o
</note>
  <anchor x="270" y="0" name="bottom"/>
  <anchor x="268" y="252" name="center"/>
  <anchor x="300" y="0" name="ogonek"/>
  <anchor x="268" y="497" name="top"/>
  <anchor x="296" y="497" name="topright"/>
  <outline>
    <contour>
      <point x="265" y="-12" type="curve" smooth="yes"/>
      <point x="416" y="-12"/>
      <point x="510" y="108"/>
      <point x="510" y="252" type="curve" smooth="yes"/>
      <point x="510" y="396"/>
      <point x="422" y="510"/>
      <point x="271" y="510" type="curve" smooth="yes"/>
      <point x="122" y="510"/>
      <point x="26" y="389"/>
      <point x="26" y="246" type="curve" smooth="yes"/>
      <point x="26" y="102"/>
      <point x="114" y="-12"/>
    </contour>
    <contour>
      <point x="266" y="68" type="curve" smooth="yes"/>
      <point x="173" y="68"/>
      <point x="158" y="176"/>
      <point x="158" y="248" type="curve" smooth="yes"/>
      <point x="158" y="318"/>
      <point x="179" y="428"/>
      <point x="270" y="428" type="curve" smooth="yes"/>
      <point x="366" y="428"/>
      <point x="378" y="323"/>
      <point x="378" y="248" type="curve" smooth="yes"/>
      <point x="378" y="175"/>
      <point x="360" y="68"/>
    </contour>
  </outline>
</glyph>
<glyph name="q" format="2">
  <advance width="556"/>
  <unicode hex="0071"/>
  <note>
q
</note>
  <outline>
    <contour>
      <point x="261" y="509" type="curve" smooth="yes"/>
      <point x="111" y="509"/>
      <point x="27" y="387"/>
      <point x="27" y="246" type="curve" smooth="yes"/>
      <point x="27" y="128"/>
      <point x="94" y="-11"/>
      <point x="229" y="-11" type="curve" smooth="yes"/>
      <point x="280" y="-11"/>
      <point x="331" y="8"/>
      <point x="370" y="41" type="curve"/>
      <point x="370" y="17"/>
      <point x="368" y="10"/>
      <point x="368" y="-35" type="curve" smooth="yes"/>
      <point x="368" y="-217" type="line"/>
      <point x="502" y="-217" type="line"/>
      <point x="501" y="-212"/>
      <point x="489" y="-164"/>
      <point x="489" y="-162" type="curve" smooth="yes"/>
      <point x="489" y="433" type="line" smooth="yes"/>
      <point x="489" y="455"/>
      <point x="490" y="475"/>
      <point x="492" y="497" type="curve"/>
      <point x="430" y="497" type="line"/>
      <point x="409" y="441" type="line"/>
      <point x="372" y="486"/>
      <point x="320" y="509"/>
    </contour>
    <contour>
      <point x="265" y="428" type="curve" smooth="yes"/>
      <point x="342" y="428"/>
      <point x="368" y="360"/>
      <point x="368" y="293" type="curve" smooth="yes"/>
      <point x="368" y="125" type="line"/>
      <point x="344" y="97"/>
      <point x="307" y="76"/>
      <point x="270" y="76" type="curve" smooth="yes"/>
      <point x="186" y="76"/>
      <point x="157" y="177"/>
      <point x="157" y="244" type="curve" smooth="yes"/>
      <point x="157" y="321"/>
      <point x="179" y="428"/>
    </contour>
  </outline>
</glyph>
<glyph name="x" format="2">
  <advance width="446"/>
  <unicode hex="0078"/>
  <note>
x
</note>
  <outline>
    <contour>
      <point x="143" y="497" type="line"/>
      <point x="8" y="497" type="line"/>
      <point x="326" y="0" type="line"/>
      <point x="460" y="0" type="line"/>
    </contour>
    <contour>
      <point x="313" y="497" type="line"/>
      <point x="-14" y="0" type="line"/>
      <point x="107" y="0" type="line"/>
      <point x="435" y="497" type="line"/>
    </contour>
  </outline>
</glyph>
<glyph name="y" format="2">
  <advance width="456"/>
  <unicode hex="0079"/>
  <note>
y
</note>
  <anchor x="344" y="0" name="bottom"/>
  <anchor x="236" y="497" name="top"/>
  <outline>
    <contour>
      <point x="127" y="497" type="curve"/>
      <point x="-2" y="497" type="line"/>
      <point x="178" y="1" type="line"/>
      <point x="159" y="-58"/>
      <point x="129" y="-139"/>
      <point x="53" y="-139" type="curve" smooth="yes"/>
      <point x="44" y="-139"/>
      <point x="35" y="-138"/>
      <point x="27" y="-136" type="curve"/>
      <point x="27" y="-221" type="line"/>
      <point x="64" y="-221" type="line" smooth="yes"/>
      <point x="184" y="-221"/>
      <point x="246" y="-103"/>
      <point x="281" y="-3" type="curve" smooth="yes"/>
      <point x="458" y="497" type="line"/>
      <point x="348" y="497" type="line"/>
      <point x="316" y="405"/>
      <point x="281" y="314"/>
      <point x="252" y="221" type="curve" smooth="yes"/>
      <point x="245" y="198"/>
      <point x="242" y="170"/>
      <point x="238" y="146" type="curve"/>
      <point x="233" y="170"/>
      <point x="231" y="198"/>
      <point x="224" y="221" type="curve" smooth="yes"/>
      <point x="194" y="314"/>
      <point x="159" y="405"/>
    </contour>
  </outline>
</glyph>
<glyph name="z" format="2">
  <advance width="445"/>
  <unicode hex="007A"/>
  <note>
z
</note>
  <anchor x="225" y="497" name="top"/>
  <outline>
    <contour>
      <point x="42" y="497" type="line"/>
      <point x="42" y="414" type="line"/>
      <point x="251" y="414" type="line"/>
      <point x="17" y="61" type="line"/>
      <point x="17" y="0" type="line"/>
      <point x="414" y="0" type="line"/>
      <point x="428" y="83" type="line"/>
      <point x="177" y="83" type="line"/>
      <point x="414" y="435" type="line"/>
      <point x="414" y="497" type="line"/>
    </contour>
  </outline>
</glyph>
<glyph name="braceright" format="2">
  <advance width="349"/>
  <unicode hex="007D"/>
  <note>
braceright
</note>
  <outline>
    <contour>
      <point x="73" y="739" type="curve" smooth="yes"/>
      <point x="27" y="739" type="line"/>
      <point x="27" y="676" type="line"/>
      <point x="100" y="676"/>
      <point x="116" y="666"/>
      <point x="116" y="592" type="curve" smooth="yes"/>
      <point x="116" y="426" type="line" smooth="yes"/>
      <point x="116" y="378"/>
      <point x="123" y="321"/>
      <point x="170" y="296" type="curve"/>
      <point x="123" y="271"/>
      <point x="115" y="213"/>
      <point x="115" y="165" type="curve" smooth="yes"/>
      <point x="115" y="-1" type="line" smooth="yes"/>
      <point x="115" y="-69"/>
      <point x="96" y="-85"/>
      <point x="27" y="-85" type="curve"/>
      <point x="27" y="-147" type="line"/>
      <point x="86" y="-147" type="line" smooth="yes"/>
      <point x="192" y="-147"/>
      <point x="233" y="-74"/>
      <point x="233" y="23" type="curve" smooth="yes"/>
      <point x="233" y="176" type="line" smooth="yes"/>
      <point x="233" y="217"/>
      <point x="246" y="265"/>
      <point x="297" y="265" type="curve"/>
      <point x="297" y="326" type="line"/>
      <point x="251" y="326"/>
      <point x="232" y="370"/>
      <point x="232" y="409" type="curve" smooth="yes"/>
      <point x="232" y="568" type="line" smooth="yes"/>
      <point x="232" y="673"/>
      <point x="186" y="739"/>
    </contour>
  </outline>
</glyph>
<glyph name="exclamdown" format="2">
  <advance width="329"/>
  <unicode hex="00A1"/>
  <note>
exclamdown
</note>
  <outline>
    <contour>
      <point x="237" y="-234" type="line"/>
      <point x="208" y="279" type="line"/>
      <point x="118" y="279" type="line"/>
      <point x="89" y="-234" type="line"/>
    </contour>
    <contour>
      <point x="88" y="436" type="curve" smooth="yes"/>
      <point x="88" y="395"/>
      <point x="122" y="362"/>
      <point x="163" y="362" type="curve" smooth="yes"/>
      <point x="203" y="362"/>
      <point x="237" y="396"/>
      <point x="237" y="436" type="curve" smooth="yes"/>
      <point x="237" y="477"/>
      <point x="203" y="510"/>
      <point x="163" y="510" type="curve" smooth="yes"/>
      <point x="122" y="510"/>
      <point x="88" y="477"/>
    </contour>
  </outline>
</glyph>
<glyph name="yen" format="2">
  <advance width="604"/>
  <unicode hex="00A5"/>
  <note>
yen
</note>
  <outline>
    <contour>
      <point x="168" y="706" type="line"/>
      <point x="20" y="706" type="line"/>
      <point x="234" y="307" type="line"/>
      <point x="234" y="0" type="line"/>
      <point x="367" y="0" type="line"/>
      <point x="367" y="307" type="line"/>
      <point x="584" y="706" type="line"/>
      <point x="464" y="706" type="line"/>
      <point x="314" y="434" type="line"/>
    </contour>
    <contour>
      <point x="63" y="389" type="line"/>
      <point x="50" y="307" type="line"/>
      <point x="548" y="307" type="line"/>
      <point x="561" y="389" type="line"/>
    </contour>
    <contour>
      <point x="64" y="249" type="line"/>
      <point x="50" y="167" type="line"/>
      <point x="548" y="167" type="line"/>
      <point x="562" y="249" type="line"/>
    </contour>
  </outline>
</glyph>
<glyph name="section" format="2">
  <advance width="503"/>
  <unicode hex="00A7"/>
  <note>
section
</note>
  <outline>
    <contour>
      <point x="29" y="340" type="curve" smooth="yes"/>
      <point x="29" y="168"/>
      <point x="280" y="146"/>
      <point x="280" y="54" type="curve" smooth="yes"/>
      <point x="280" y="16"/>
      <point x="241" y="-11"/>
      <point x="192" y="-11" type="curve" smooth="yes"/>
      <point x="157" y="-11"/>
      <point x="117" y="2"/>
      <point x="83" y="35" type="curve"/>
      <point x="41" y="-49" type="line"/>
      <point x="90" y="-80"/>
      <point x="145" y="-94"/>
      <point x="197" y="-94" type="curve" smooth="yes"/>
      <point x="310" y="-94"/>
      <point x="410" y="-26"/>
      <point x="410" y="76" type="curve" smooth="yes"/>
      <point x="410" y="111"/>
      <point x="399" y="140"/>
      <point x="381" y="164" type="curve"/>
      <point x="435" y="191"/>
      <point x="474" y="241"/>
      <point x="474" y="309" type="curve" smooth="yes"/>
      <point x="474" y="481"/>
      <point x="223" y="503"/>
      <point x="223" y="595" type="curve" smooth="yes"/>
      <point x="223" y="633"/>
      <point x="262" y="660"/>
      <point x="311" y="660" type="curve" smooth="yes"/>
      <point x="346" y="660"/>
      <point x="386" y="647"/>
      <point x="420" y="614" type="curve"/>
      <point x="462" y="698" type="line"/>
      <point x="413" y="729"/>
      <point x="358" y="743"/>
      <point x="306" y="743" type="curve" smooth="yes"/>
      <point x="193" y="743"/>
      <point x="93" y="675"/>
      <point x="93" y="573" type="curve" smooth="yes"/>
      <point x="93" y="538"/>
      <point x="104" y="509"/>
      <point x="122" y="485" type="curve"/>
      <point x="68" y="458"/>
      <point x="29" y="408"/>
    </contour>
    <contour>
      <point x="159" y="360" type="curve" smooth="yes"/>
      <point x="159" y="391"/>
      <point x="176" y="410"/>
      <point x="200" y="418" type="curve"/>
      <point x="268" y="376"/>
      <point x="344" y="347"/>
      <point x="344" y="289" type="curve" smooth="yes"/>
      <point x="344" y="258"/>
      <point x="327" y="239"/>
      <point x="303" y="231" type="curve"/>
      <point x="235" y="273"/>
      <point x="159" y="302"/>
    </contour>
  </outline>
</glyph>
<glyph name="logicalnot" format="2">
  <advance width="638"/>
  <unicode hex="00AC"/>
  <note>
logicalnot
</note>
  <outline>
    <contour>
      <point x="482" y="267" type="line"/>
      <point x="482" y="79" type="line"/>
      <point x="568" y="79" type="line"/>
      <point x="568" y="350" type="line"/>
      <point x="70" y="350" type="line"/>
      <point x="70" y="267" type="line"/>
    </contour>
  </outline>
</glyph>
<glyph name="macron" format="2">
  <advance width="295"/>
  <unicode hex="00AF"/>
  <note>
macron
</note>
  <anchor x="148" y="497" name="_top"/>
  <outline>
    <contour>
      <point x="0" y="689" type="line"/>
      <point x="0" y="615" type="line"/>
      <point x="295" y="615" type="line"/>
      <point x="295" y="689" type="line"/>
    </contour>
  </outline>
</glyph>
<glyph name="plusminus" format="2">
  <advance width="632"/>
  <unicode hex="00B1"/>
  <note>
plusminus
</note>
  <outline>
    <contour>
      <point x="360" y="120" type="line"/>
      <point x="360" y="267" type="line"/>
      <point x="565" y="267" type="line"/>
      <point x="565" y="352" type="line"/>
      <point x="360" y="352" type="line"/>
      <point x="360" y="497" type="line"/>
      <point x="272" y="497" type="line"/>
      <point x="272" y="351" type="line"/>
      <point x="67" y="351" type="line"/>
      <point x="67" y="266" type="line"/>
      <point x="272" y="266" type="line"/>
      <point x="272" y="120" type="line"/>
    </contour>
    <contour>
      <point x="67" y="88" type="line"/>
      <point x="67" y="1" type="line"/>
      <point x="565" y="1" type="line"/>
      <point x="565" y="88" type="line"/>
    </contour>
  </outline>
</glyph>
<glyph name="onesuperior" format="2">
  <advance width="455"/>
  <unicode hex="00B9"/>
  <note>
uni00B9
</note>
  <outline>
    <contour>
      <point x="62" y="517" type="line"/>
      <point x="62" y="438" type="line"/>
      <point x="416" y="438" type="line"/>
      <point x="416" y="517" type="line"/>
      <point x="309" y="517" type="line"/>
      <point x="309" y="924" type="line"/>
      <point x="224" y="924" type="line"/>
      <point x="45" y="855" type="line"/>
      <point x="70" y="785" type="line"/>
      <point x="195" y="820" type="line"/>
      <point x="195" y="517" type="line"/>
    </contour>
  </outline>
</glyph>
<glyph name="ordmasculine" format="2">
  <advance width="332"/>
  <unicode hex="00BA"/>
  <note>
ordmasculine
</note>
  <outline>
    <contour>
      <point x="174" y="735" type="curve" smooth="yes"/>
      <point x="70" y="735"/>
      <point x="4" y="660"/>
      <point x="4" y="560" type="curve" smooth="yes"/>
      <point x="4" y="460"/>
      <point x="59" y="386"/>
      <point x="163" y="386" type="curve" smooth="yes"/>
      <point x="267" y="386"/>
      <point x="333" y="460"/>
      <point x="333" y="560" type="curve" smooth="yes"/>
      <point x="333" y="660"/>
      <point x="278" y="735"/>
    </contour>
    <contour>
      <point x="168" y="680" type="curve" smooth="yes"/>
      <point x="231" y="680"/>
      <point x="244" y="609"/>
      <point x="244" y="560" type="curve" smooth="yes"/>
      <point x="244" y="511"/>
      <point x="232" y="441"/>
      <point x="169" y="441" type="curve" smooth="yes"/>
      <point x="106" y="441"/>
      <point x="93" y="510"/>
      <point x="93" y="560" type="curve" smooth="yes"/>
      <point x="93" y="609"/>
      <point x="105" y="680"/>
    </contour>
    <contour>
      <point x="38" y="330" type="line"/>
      <point x="38" y="272" type="line"/>
      <point x="297" y="272" type="line"/>
      <point x="297" y="330" type="line"/>
    </contour>
  </outline>
</glyph>
<glyph name="onequarter" format="2">
  <advance width="1111"/>
  <unicode hex="00BC"/>
  <note>
onequarter
</note>
  <outline>
    <contour>
      <point x="694" y="732" type="line"/>
      <point x="323" y="0" type="line"/>
      <point x="416" y="0" type="line"/>
      <point x="788" y="732" type="line"/>
    </contour>
    <contour>
      <point x="62" y="327" type="line"/>
      <point x="62" y="248" type="line"/>
      <point x="416" y="248" type="line"/>
      <point x="416" y="327" type="line"/>
      <point x="309" y="327" type="line"/>
      <point x="309" y="734" type="line"/>
      <point x="224" y="734" type="line"/>
      <point x="45" y="665" type="line"/>
      <point x="70" y="595" type="line"/>
      <point x="195" y="630" type="line"/>
      <point x="195" y="327" type="line"/>
    </contour>
    <contour>
      <point x="909" y="101" type="line"/>
      <point x="909" y="0" type="line"/>
      <point x="1023" y="0" type="line"/>
      <point x="1023" y="101" type="line"/>
      <point x="1070" y="101" type="line"/>
      <point x="1095" y="180" type="line"/>
      <point x="1023" y="180" type="line"/>
      <point x="1023" y="486" type="line"/>
      <point x="910" y="486" type="line"/>
      <point x="684" y="153" type="line"/>
      <point x="684" y="101" type="line"/>
    </contour>
    <contour>
      <point x="917" y="356" type="line"/>
      <point x="909" y="180" type="line"/>
      <point x="799" y="180" type="line"/>
    </contour>
  </outline>
</glyph>
<glyph name="threequarters" format="2">
  <advance width="1111"/>
  <unicode hex="00BE"/>
  <note>
threequarters
</note>
  <outline>
    <contour>
      <point x="694" y="732" type="line"/>
      <point x="323" y="0" type="line"/>
      <point x="416" y="0" type="line"/>
      <point x="788" y="732" type="line"/>
    </contour>
    <contour>
      <point x="48" y="304" type="curve"/>
      <point x="63" y="235" type="line"/>
      <point x="354" y="246"/>
      <point x="406" y="366"/>
      <point x="406" y="432" type="curve" smooth="yes"/>
      <point x="406" y="501"/>
      <point x="362" y="537"/>
      <point x="299" y="548" type="curve"/>
      <point x="350" y="566"/>
      <point x="384" y="600"/>
      <point x="384" y="651" type="curve" smooth="yes"/>
      <point x="384" y="725"/>
      <point x="309" y="745"/>
      <point x="242" y="745" type="curve" smooth="yes"/>
      <point x="178" y="745"/>
      <point x="101" y="715"/>
      <point x="53" y="677" type="curve"/>
      <point x="96" y="616" type="line"/>
      <point x="128" y="642"/>
      <point x="181" y="666"/>
      <point x="226" y="666" type="curve" smooth="yes"/>
      <point x="252" y="666"/>
      <point x="275" y="653"/>
      <point x="275" y="631" type="curve" smooth="yes"/>
      <point x="275" y="570"/>
      <point x="197" y="549"/>
      <point x="143" y="538" type="curve"/>
      <point x="154" y="480" type="line"/>
      <point x="154" y="480"/>
      <point x="169" y="482"/>
      <point x="189" y="482" type="curve" smooth="yes"/>
      <point x="229" y="482"/>
      <point x="292" y="478"/>
      <point x="292" y="423" type="curve" smooth="yes"/>
      <point x="292" y="358"/>
      <point x="207" y="312"/>
    </contour>
    <contour>
      <point x="909" y="101" type="line"/>
      <point x="909" y="0" type="line"/>
      <point x="1023" y="0" type="line"/>
      <point x="1023" y="101" type="line"/>
      <point x="1070" y="101" type="line"/>
      <point x="1095" y="180" type="line"/>
      <point x="1023" y="180" type="line"/>
      <point x="1023" y="486" type="line"/>
      <point x="910" y="486" type="line"/>
      <point x="684" y="153" type="line"/>
      <point x="684" y="101" type="line"/>
    </contour>
    <contour>
      <point x="917" y="356" type="line"/>
      <point x="909" y="180" type="line"/>
      <point x="799" y="180" type="line"/>
    </contour>
  </outline>
</glyph>
<glyph name="Thorn" format="2">
  <advance width="575"/>
  <unicode hex="00DE"/>
  <note>
Thorn
</note>
  <outline>
    <contour>
      <point x="205" y="732" type="line"/>
      <point x="53" y="732" type="line"/>
      <point x="66" y="671" type="line"/>
      <point x="66" y="0" type="line"/>
      <point x="203" y="0" type="line"/>
      <point x="203" y="179" type="line"/>
      <point x="285" y="179" type="line" smooth="yes"/>
      <point x="421" y="179"/>
      <point x="549" y="245"/>
      <point x="549" y="398" type="curve" smooth="yes"/>
      <point x="549" y="563"/>
      <point x="428" y="617"/>
      <point x="283" y="617" type="curve" smooth="yes"/>
      <point x="205" y="617" type="line"/>
    </contour>
    <contour>
      <point x="288" y="276" type="curve" smooth="yes"/>
      <point x="204" y="276" type="line"/>
      <point x="204" y="518" type="line"/>
      <point x="289" y="518" type="line" smooth="yes"/>
      <point x="365" y="518"/>
      <point x="403" y="471"/>
      <point x="403" y="398" type="curve" smooth="yes"/>
      <point x="403" y="327"/>
      <point x="362" y="276"/>
    </contour>
  </outline>
</glyph>
<glyph name="ae" format="2">
  <advance width="768"/>
  <unicode hex="00E6"/>
  <note>
ae
</note>
  <anchor x="390" y="497" name="top"/>
  <outline>
    <contour>
      <point x="30" y="117" type="curve" smooth="yes"/>
      <point x="30" y="35"/>
      <point x="93" y="-11"/>
      <point x="171" y="-11" type="curve" smooth="yes"/>
      <point x="237" y="-11"/>
      <point x="302" y="6"/>
      <point x="346" y="84" type="curve"/>
      <point x="388" y="24"/>
      <point x="458" y="-11"/>
      <point x="550" y="-11" type="curve" smooth="yes"/>
      <point x="605" y="-11"/>
      <point x="683" y="5"/>
      <point x="728" y="42" type="curve"/>
      <point x="677" y="122" type="line"/>
      <point x="647" y="92"/>
      <point x="598" y="69"/>
      <point x="556" y="69" type="curve" smooth="yes"/>
      <point x="468" y="69"/>
      <point x="427" y="158"/>
      <point x="427" y="234" type="curve"/>
      <point x="731" y="234" type="line"/>
      <point x="737" y="256"/>
      <point x="740" y="280"/>
      <point x="740" y="302" type="curve" smooth="yes"/>
      <point x="740" y="409"/>
      <point x="677" y="511"/>
      <point x="539" y="511" type="curve" smooth="yes"/>
      <point x="481" y="511"/>
      <point x="432" y="492"/>
      <point x="394" y="461" type="curve"/>
      <point x="362" y="492"/>
      <point x="310" y="509"/>
      <point x="254" y="509" type="curve" smooth="yes"/>
      <point x="182" y="509"/>
      <point x="112" y="488"/>
      <point x="52" y="447" type="curve"/>
      <point x="101" y="368" type="line"/>
      <point x="136" y="395"/>
      <point x="183" y="426"/>
      <point x="229" y="426" type="curve" smooth="yes"/>
      <point x="279" y="426"/>
      <point x="301" y="409"/>
      <point x="301" y="356" type="curve" smooth="yes"/>
      <point x="301" y="291" type="line"/>
      <point x="186" y="291"/>
      <point x="30" y="262"/>
    </contour>
    <contour>
      <point x="155" y="129" type="curve" smooth="yes"/>
      <point x="155" y="204"/>
      <point x="245" y="209"/>
      <point x="301" y="209" type="curve"/>
      <point x="301" y="186" type="line" smooth="yes"/>
      <point x="301" y="137"/>
      <point x="268" y="81"/>
      <point x="213" y="81" type="curve" smooth="yes"/>
      <point x="185" y="81"/>
      <point x="155" y="98"/>
    </contour>
    <contour>
      <point x="430" y="313" type="line"/>
      <point x="433" y="365"/>
      <point x="468" y="429"/>
      <point x="534" y="429" type="curve" smooth="yes"/>
      <point x="594" y="429"/>
      <point x="621" y="376"/>
      <point x="615" y="313" type="curve"/>
    </contour>
  </outline>
</glyph>
<glyph name="iogonek" format="2">
  <advance width="251"/>
  <unicode hex="012F"/>
  <outline>
    <contour>
      <point x="202" y="678" type="curve" smooth="yes"/>
      <point x="202" y="720"/>
      <point x="168" y="754"/>
      <point x="126" y="754" type="curve" smooth="yes"/>
      <point x="84" y="754"/>
      <point x="49" y="720"/>
      <point x="49" y="678" type="curve" smooth="yes"/>
      <point x="49" y="636"/>
      <point x="84" y="601"/>
      <point x="126" y="601" type="curve" smooth="yes"/>
      <point x="168" y="601"/>
      <point x="202" y="636"/>
    </contour>
    <contour>
      <point x="185" y="497" type="line"/>
      <point x="54" y="497" type="line"/>
      <point x="65" y="443" type="line"/>
      <point x="65" y="0" type="line"/>
      <point x="185" y="0" type="line"/>
    </contour>
    <contour>
      <point x="210" y="-154" type="curve"/>
      <point x="187" y="-104" type="line"/>
      <point x="166" y="-117"/>
      <point x="129" y="-140"/>
      <point x="104" y="-140" type="curve" smooth="yes"/>
      <point x="79" y="-140"/>
      <point x="62" y="-128"/>
      <point x="62" y="-102" type="curve" smooth="yes"/>
      <point x="62" y="-55"/>
      <point x="126" y="-15"/>
      <point x="176" y="7" type="curve"/>
      <point x="159" y="33" type="line"/>
      <point x="91" y="22"/>
      <point x="-36" y="-37"/>
      <point x="-36" y="-118" type="curve" smooth="yes"/>
      <point x="-36" y="-180"/>
      <point x="10" y="-211"/>
      <point x="68" y="-211" type="curve" smooth="yes"/>
      <point x="121" y="-211"/>
      <point x="170" y="-186"/>
    </contour>
  </outline>
</glyph>
<glyph name="idotless" format="2">
  <advance width="251"/>
  <unicode hex="0131"/>
  <note>
dotlessi
</note>
  <anchor x="125" y="0" name="bottom"/>
  <anchor x="125" y="497" name="top"/>
  <outline>
    <contour>
      <point x="65" y="443" type="curve" smooth="yes"/>
      <point x="65" y="0" type="line"/>
      <point x="185" y="0" type="line"/>
      <point x="185" y="497" type="line"/>
      <point x="54" y="497" type="line"/>
      <point x="55" y="492"/>
      <point x="65" y="445"/>
    </contour>
  </outline>
</glyph>
<glyph name="kgreenlandic" format="2">
  <advance width="464"/>
  <unicode hex="0138"/>
  <outline>
    <contour>
      <point x="191" y="497" type="line"/>
      <point x="68" y="497" type="line"/>
      <point x="68" y="0" type="line"/>
      <point x="191" y="0" type="line"/>
      <point x="191" y="225" type="line"/>
      <point x="356" y="0" type="line"/>
      <point x="491" y="0" type="line"/>
      <point x="301" y="262" type="line"/>
      <point x="462" y="497" type="line"/>
      <point x="345" y="497" type="line"/>
      <point x="191" y="262" type="line"/>
    </contour>
  </outline>
</glyph>
<glyph name="Eng" format="2">
  <advance width="714"/>
  <unicode hex="014A"/>
  <outline>
    <contour>
      <point x="52" y="731" type="line"/>
      <point x="66" y="670" type="line"/>
      <point x="66" y="0" type="line"/>
      <point x="177" y="0" type="line"/>
      <point x="177" y="497" type="line" smooth="yes"/>
      <point x="177" y="519"/>
      <point x="173" y="542"/>
      <point x="171" y="564" type="curve"/>
      <point x="184" y="542"/>
      <point x="199" y="519"/>
      <point x="213" y="497" type="curve" smooth="yes"/>
      <point x="512" y="41" type="line"/>
      <point x="512" y="-38"/>
      <point x="502" y="-119"/>
      <point x="407" y="-131" type="curve"/>
      <point x="427" y="-209" type="line"/>
      <point x="624" y="-200"/>
      <point x="650" y="-70"/>
      <point x="650" y="98" type="curve" smooth="yes"/>
      <point x="650" y="731" type="line"/>
      <point x="539" y="731" type="line"/>
      <point x="539" y="304" type="line" smooth="yes"/>
      <point x="539" y="279"/>
      <point x="543" y="252"/>
      <point x="545" y="227" type="curve"/>
      <point x="532" y="249"/>
      <point x="519" y="271"/>
      <point x="504" y="293" type="curve" smooth="yes"/>
      <point x="216" y="731" type="line"/>
    </contour>
  </outline>
</glyph>
<glyph name="eng" format="2">
  <advance width="547"/>
  <unicode hex="014B"/>
  <outline>
    <contour>
      <point x="43" y="493" type="line"/>
      <point x="67" y="464"/>
      <point x="74" y="391"/>
      <point x="74" y="356" type="curve" smooth="yes"/>
      <point x="74" y="0" type="line"/>
      <point x="194" y="0" type="line"/>
      <point x="194" y="361" type="line"/>
      <point x="215" y="384"/>
      <point x="272" y="416"/>
      <point x="302" y="416" type="curve" smooth="yes"/>
      <point x="360" y="416"/>
      <point x="365" y="370"/>
      <point x="365" y="324" type="curve" smooth="yes"/>
      <point x="365" y="40" type="line" smooth="yes"/>
      <point x="365" y="-36"/>
      <point x="366" y="-128"/>
      <point x="290" y="-169" type="curve"/>
      <point x="312" y="-224" type="line"/>
      <point x="467" y="-206"/>
      <point x="486" y="-63"/>
      <point x="486" y="66" type="curve" smooth="yes"/>
      <point x="486" y="336" type="line" smooth="yes"/>
      <point x="486" y="440"/>
      <point x="453" y="511"/>
      <point x="338" y="511" type="curve" smooth="yes"/>
      <point x="283" y="511"/>
      <point x="226" y="480"/>
      <point x="186" y="444" type="curve"/>
      <point x="183" y="465"/>
      <point x="178" y="488"/>
      <point x="169" y="508" type="curve"/>
    </contour>
  </outline>
</glyph>
<glyph name="oe" format="2">
  <advance width="846"/>
  <unicode hex="0153"/>
  <note>
oe
</note>
  <outline>
    <contour>
      <point x="26" y="249" type="curve" smooth="yes"/>
      <point x="26" y="105"/>
      <point x="117" y="-12"/>
      <point x="268" y="-12" type="curve" smooth="yes"/>
      <point x="342" y="-12"/>
      <point x="401" y="16"/>
      <point x="443" y="61" type="curve"/>
      <point x="486" y="15"/>
      <point x="549" y="-11"/>
      <point x="628" y="-11" type="curve" smooth="yes"/>
      <point x="683" y="-11"/>
      <point x="761" y="5"/>
      <point x="806" y="42" type="curve"/>
      <point x="755" y="122" type="line"/>
      <point x="725" y="92"/>
      <point x="676" y="69"/>
      <point x="634" y="69" type="curve" smooth="yes"/>
      <point x="546" y="69"/>
      <point x="505" y="158"/>
      <point x="505" y="234" type="curve"/>
      <point x="809" y="234" type="line"/>
      <point x="815" y="256"/>
      <point x="818" y="280"/>
      <point x="818" y="302" type="curve" smooth="yes"/>
      <point x="818" y="409"/>
      <point x="755" y="511"/>
      <point x="617" y="511" type="curve" smooth="yes"/>
      <point x="544" y="511"/>
      <point x="486" y="481"/>
      <point x="445" y="435" type="curve"/>
      <point x="403" y="481"/>
      <point x="343" y="510"/>
      <point x="268" y="510" type="curve" smooth="yes"/>
      <point x="119" y="510"/>
      <point x="26" y="392"/>
    </contour>
    <contour>
      <point x="158" y="248" type="curve" smooth="yes"/>
      <point x="158" y="318"/>
      <point x="177" y="428"/>
      <point x="268" y="428" type="curve" smooth="yes"/>
      <point x="362" y="428"/>
      <point x="378" y="321"/>
      <point x="378" y="248" type="curve" smooth="yes"/>
      <point x="378" y="175"/>
      <point x="362" y="68"/>
      <point x="268" y="68" type="curve" smooth="yes"/>
      <point x="177" y="68"/>
      <point x="158" y="178"/>
    </contour>
    <contour>
      <point x="508" y="313" type="line"/>
      <point x="511" y="365"/>
      <point x="546" y="429"/>
      <point x="612" y="429" type="curve" smooth="yes"/>
      <point x="672" y="429"/>
      <point x="699" y="376"/>
      <point x="693" y="313" type="curve"/>
    </contour>
  </outline>
</glyph>
<glyph name="uhorn" format="2">
  <advance width="553"/>
  <unicode hex="01B0"/>
  <anchor x="275" y="0" name="bottom"/>
  <anchor x="273" y="497" name="top"/>
  <outline>
    <contour>
      <point x="215" y="-14" type="curve" smooth="yes"/>
      <point x="277" y="-14"/>
      <point x="336" y="15"/>
      <point x="379" y="59" type="curve"/>
      <point x="387" y="20"/>
      <point x="416" y="-8"/>
      <point x="457" y="-8" type="curve" smooth="yes"/>
      <point x="495" y="-8"/>
      <point x="537" y="9"/>
      <point x="574" y="19" type="curve"/>
      <point x="553" y="92" type="line"/>
      <point x="538" y="88"/>
      <point x="521" y="80"/>
      <point x="506" y="80" type="curve" smooth="yes"/>
      <point x="481" y="80"/>
      <point x="481" y="115"/>
      <point x="481" y="132" type="curve" smooth="yes"/>
      <point x="481" y="497" type="line"/>
      <point x="347" y="497" type="line"/>
      <point x="359" y="443" type="line"/>
      <point x="359" y="179" type="line" smooth="yes"/>
      <point x="359" y="120"/>
      <point x="309" y="82"/>
      <point x="253" y="82" type="curve" smooth="yes"/>
      <point x="195" y="82"/>
      <point x="188" y="136"/>
      <point x="188" y="182" type="curve" smooth="yes"/>
      <point x="188" y="497" type="line"/>
      <point x="55" y="497" type="line"/>
      <point x="66" y="443" type="line"/>
      <point x="66" y="161" type="line" smooth="yes"/>
      <point x="66" y="57"/>
      <point x="100" y="-14"/>
    </contour>
    <contour>
      <point x="361" y="443" type="line"/>
      <point x="528" y="407"/>
      <point x="582" y="528"/>
      <point x="574" y="628" type="curve"/>
      <point x="458" y="628" type="line"/>
      <point x="468" y="557"/>
      <point x="446" y="496"/>
      <point x="394" y="497" type="curve"/>
    </contour>
  </outline>
</glyph>
<glyph name="breve" format="2">
  <advance width="301"/>
  <unicode hex="02D8"/>
  <note>
breve
</note>
  <anchor x="150" y="497" name="_top"/>
  <outline>
    <contour>
      <point x="301" y="732" type="curve"/>
      <point x="232" y="732" type="line"/>
      <point x="222" y="687"/>
      <point x="198" y="662"/>
      <point x="150" y="662" type="curve" smooth="yes"/>
      <point x="101" y="662"/>
      <point x="78" y="686"/>
      <point x="67" y="732" type="curve"/>
      <point x="0" y="732" type="line"/>
      <point x="8" y="641"/>
      <point x="52" y="572"/>
      <point x="150" y="572" type="curve" smooth="yes"/>
      <point x="254" y="572"/>
      <point x="289" y="639"/>
    </contour>
  </outline>
</glyph>
<glyph name="ring" format="2">
  <advance width="283"/>
  <unicode hex="02DA"/>
  <note>
ring
</note>
  <anchor x="141" y="497" name="_top"/>
  <outline>
    <contour>
      <point x="141" y="769" type="curve" smooth="yes"/>
      <point x="82" y="769"/>
      <point x="34" y="720"/>
      <point x="34" y="662" type="curve" smooth="yes"/>
      <point x="34" y="603"/>
      <point x="82" y="555"/>
      <point x="141" y="555" type="curve" smooth="yes"/>
      <point x="200" y="555"/>
      <point x="249" y="603"/>
      <point x="249" y="662" type="curve" smooth="yes"/>
      <point x="249" y="720"/>
      <point x="200" y="769"/>
    </contour>
    <contour>
      <point x="140" y="702" type="curve" smooth="yes"/>
      <point x="163" y="702"/>
      <point x="181" y="684"/>
      <point x="181" y="661" type="curve" smooth="yes"/>
      <point x="181" y="638"/>
      <point x="163" y="621"/>
      <point x="140" y="621" type="curve" smooth="yes"/>
      <point x="117" y="621"/>
      <point x="100" y="638"/>
      <point x="100" y="661" type="curve" smooth="yes"/>
      <point x="100" y="684"/>
      <point x="117" y="702"/>
    </contour>
  </outline>
</glyph>
<glyph name="slashlongcomb" format="2">
  <unicode hex="0338"/>
  <anchor x="260" y="244" name="_center"/>
  <outline>
    <contour>
      <point x="99" y="-91" type="line"/>
      <point x="493" y="545" type="line"/>
      <point x="427" y="582" type="line"/>
      <point x="36" y="-50" type="line"/>
    </contour>
  </outline>
</glyph>
<glyph name="pi" format="2">
  <advance width="669"/>
  <unicode hex="03C0"/>
  <note>
pi
</note>
  <outline>
    <contour>
      <point x="295" y="439" type="curve"/>
      <point x="178" y="439" type="line"/>
      <point x="178" y="363"/>
      <point x="179" y="304"/>
      <point x="179" y="257" type="curve" smooth="yes"/>
      <point x="179" y="115"/>
      <point x="169" y="83"/>
      <point x="87" y="26" type="curve"/>
      <point x="122" y="-30" type="line"/>
      <point x="286" y="20"/>
      <point x="295" y="108"/>
      <point x="295" y="347" type="curve" smooth="yes"/>
      <point x="295" y="375"/>
      <point x="295" y="406"/>
    </contour>
    <contour>
      <point x="512" y="439" type="curve"/>
      <point x="394" y="439" type="line"/>
      <point x="386" y="354"/>
      <point x="380" y="279"/>
      <point x="380" y="216" type="curve" smooth="yes"/>
      <point x="380" y="75"/>
      <point x="411" y="-5"/>
      <point x="524" y="-5" type="curve" smooth="yes"/>
      <point x="560" y="-5"/>
      <point x="601" y="11"/>
      <point x="625" y="28" type="curve"/>
      <point x="598" y="91" type="line"/>
      <point x="584" y="86"/>
      <point x="571" y="84"/>
      <point x="560" y="84" type="curve" smooth="yes"/>
      <point x="510" y="84"/>
      <point x="494" y="135"/>
      <point x="494" y="217" type="curve" smooth="yes"/>
      <point x="494" y="277"/>
      <point x="502" y="353"/>
    </contour>
    <contour>
      <point x="654" y="462" type="curve"/>
      <point x="618" y="519" type="line"/>
      <point x="586" y="500"/>
      <point x="556" y="497"/>
      <point x="520" y="497" type="curve" smooth="yes"/>
      <point x="180" y="497" type="line" smooth="yes"/>
      <point x="83" y="497"/>
      <point x="19" y="422"/>
      <point x="14" y="342" type="curve"/>
      <point x="82" y="326" type="line"/>
      <point x="93" y="372"/>
      <point x="119" y="407"/>
      <point x="166" y="407" type="curve" smooth="yes"/>
      <point x="529" y="407" type="line" smooth="yes"/>
      <point x="574" y="407"/>
      <point x="627" y="422"/>
    </contour>
  </outline>
</glyph>
<glyph name="Germandbls" format="2">
  <advance width="690"/>
  <unicode hex="1E9E"/>
  <outline>
    <contour>
      <point x="53" y="732" type="line"/>
      <point x="67" y="671" type="line"/>
      <point x="67" y="0" type="line"/>
      <point x="206" y="0" type="line"/>
      <point x="206" y="633" type="line"/>
      <point x="556" y="633" type="line"/>
      <point x="555" y="732" type="line"/>
    </contour>
    <contour>
      <point x="309" y="328" type="line"/>
      <point x="433" y="339" type="line"/>
      <point x="631" y="652" type="line"/>
      <point x="555" y="732" type="line"/>
    </contour>
    <contour>
      <point x="424" y="426" type="curve"/>
      <point x="309" y="328" type="line"/>
      <point x="325" y="330"/>
      <point x="341" y="330"/>
      <point x="355" y="330" type="curve" smooth="yes"/>
      <point x="503" y="330"/>
      <point x="542" y="255"/>
      <point x="542" y="190" type="curve" smooth="yes"/>
      <point x="542" y="119"/>
      <point x="493" y="85"/>
      <point x="434" y="85" type="curve" smooth="yes"/>
      <point x="383" y="85"/>
      <point x="325" y="110"/>
      <point x="283" y="157" type="curve"/>
      <point x="236" y="46" type="line"/>
      <point x="297" y="5"/>
      <point x="368" y="-14"/>
      <point x="435" y="-14" type="curve" smooth="yes"/>
      <point x="569" y="-14"/>
      <point x="688" y="65"/>
      <point x="688" y="215" type="curve" smooth="yes"/>
      <point x="688" y="360"/>
      <point x="541" y="424"/>
    </contour>
  </outline>
</glyph>
<glyph name="endash" format="2">
  <advance width="476"/>
  <unicode hex="2013"/>
  <note>
endash
</note>
  <outline>
    <contour>
      <point x="0" y="305" type="line"/>
      <point x="0" y="211" type="line"/>
      <point x="476" y="211" type="line"/>
      <point x="476" y="305" type="line"/>
    </contour>
  </outline>
</glyph>
<glyph name="quoteright" format="2">
  <advance width="286"/>
  <unicode hex="2019"/>
  <note>
quoteright
</note>
  <outline>
    <contour>
      <point x="80" y="513" type="curve"/>
      <point x="119" y="472" type="line"/>
      <point x="176" y="514"/>
      <point x="228" y="577"/>
      <point x="228" y="652" type="curve" smooth="yes"/>
      <point x="228" y="700"/>
      <point x="199" y="745"/>
      <point x="147" y="745" type="curve" smooth="yes"/>
      <point x="107" y="745"/>
      <point x="78" y="714"/>
      <point x="78" y="675" type="curve" smooth="yes"/>
      <point x="78" y="620"/>
      <point x="126" y="612"/>
      <point x="126" y="586" type="curve" smooth="yes"/>
      <point x="126" y="565"/>
      <point x="95" y="528"/>
    </contour>
  </outline>
</glyph>
<glyph name="quotesinglbase" format="2">
  <advance width="276"/>
  <unicode hex="201A"/>
  <note>
quotesinglbase
</note>
  <outline>
    <contour>
      <point x="72" y="-93" type="curve"/>
      <point x="111" y="-134" type="line"/>
      <point x="169" y="-92"/>
      <point x="220" y="-29"/>
      <point x="220" y="46" type="curve" smooth="yes"/>
      <point x="220" y="94"/>
      <point x="191" y="139"/>
      <point x="139" y="139" type="curve" smooth="yes"/>
      <point x="100" y="139"/>
      <point x="70" y="107"/>
      <point x="70" y="69" type="curve" smooth="yes"/>
      <point x="70" y="14"/>
      <point x="118" y="5"/>
      <point x="118" y="-20" type="curve" smooth="yes"/>
      <point x="118" y="-41"/>
      <point x="88" y="-78"/>
    </contour>
  </outline>
</glyph>
<glyph name="dagger" format="2">
  <advance width="523"/>
  <unicode hex="2020"/>
  <note>
dagger
</note>
  <outline>
    <contour>
      <point x="264" y="740" type="line"/>
      <point x="207" y="658" type="line"/>
      <point x="233" y="514" type="line"/>
      <point x="117" y="539" type="line"/>
      <point x="51" y="485" type="line"/>
      <point x="117" y="430" type="line"/>
      <point x="233" y="452" type="line"/>
      <point x="208" y="309" type="line"/>
      <point x="245" y="-138" type="line"/>
      <point x="291" y="-138" type="line"/>
      <point x="325" y="309" type="line"/>
      <point x="299" y="452" type="line"/>
      <point x="418" y="430" type="line"/>
      <point x="482" y="481" type="line"/>
      <point x="418" y="539" type="line"/>
      <point x="299" y="514" type="line"/>
      <point x="326" y="658" type="line"/>
    </contour>
  </outline>
</glyph>
<glyph name="bullet" format="2">
  <advance width="441"/>
  <unicode hex="2022"/>
  <note>
bullet
</note>
  <outline>
    <contour>
      <point x="221" y="513" type="curve" smooth="yes"/>
      <point x="135" y="513"/>
      <point x="65" y="443"/>
      <point x="65" y="357" type="curve" smooth="yes"/>
      <point x="65" y="270"/>
      <point x="135" y="201"/>
      <point x="222" y="201" type="curve" smooth="yes"/>
      <point x="309" y="201"/>
      <point x="377" y="270"/>
      <point x="377" y="357" type="curve" smooth="yes"/>
      <point x="377" y="444"/>
      <point x="308" y="513"/>
    </contour>
  </outline>
</glyph>
<glyph name="minute" format="2">
  <advance width="296"/>
  <unicode hex="2032"/>
  <outline>
    <contour>
      <point x="105" y="705" type="line"/>
      <point x="56" y="520" type="line"/>
      <point x="159" y="520" type="line"/>
      <point x="250" y="705" type="line"/>
    </contour>
  </outline>
</glyph>
<glyph name="fraction" format="2">
  <advance width="201"/>
  <unicode hex="2044"/>
  <note>
fraction
</note>
  <outline>
    <contour>
      <point x="239" y="732" type="line"/>
      <point x="-132" y="0" type="line"/>
      <point x="-39" y="0" type="line"/>
      <point x="333" y="732" type="line"/>
    </contour>
  </outline>
</glyph>
<glyph name="fivesuperior" format="2">
  <advance width="455"/>
  <unicode hex="2075"/>
  <outline>
    <contour>
      <point x="137" y="925" type="line"/>
      <point x="76" y="707" type="line"/>
      <point x="212" y="696"/>
      <point x="258" y="655"/>
      <point x="258" y="595" type="curve" smooth="yes"/>
      <point x="258" y="531"/>
      <point x="207" y="499"/>
      <point x="119" y="499" type="curve" smooth="yes"/>
      <point x="101" y="499"/>
      <point x="81" y="500"/>
      <point x="59" y="503" type="curve"/>
      <point x="49" y="433" type="line"/>
      <point x="80" y="427"/>
      <point x="111" y="424"/>
      <point x="140" y="424" type="curve" smooth="yes"/>
      <point x="274" y="424"/>
      <point x="372" y="486"/>
      <point x="372" y="600" type="curve" smooth="yes"/>
      <point x="372" y="673"/>
      <point x="326" y="745"/>
      <point x="178" y="769" type="curve"/>
      <point x="198" y="830" type="line"/>
      <point x="390" y="830" type="line"/>
      <point x="414" y="925" type="line"/>
    </contour>
  </outline>
</glyph>
<glyph name="ninesuperior" format="2">
  <advance width="455"/>
  <unicode hex="2079"/>
  <outline>
    <contour>
      <point x="103" y="425" type="line"/>
      <point x="284" y="452"/>
      <point x="412" y="583"/>
      <point x="412" y="751" type="curve" smooth="yes"/>
      <point x="412" y="880"/>
      <point x="327" y="935"/>
      <point x="238" y="935" type="curve" smooth="yes"/>
      <point x="105" y="935"/>
      <point x="42" y="846"/>
      <point x="42" y="763" type="curve" smooth="yes"/>
      <point x="42" y="690"/>
      <point x="91" y="621"/>
      <point x="187" y="621" type="curve" smooth="yes"/>
      <point x="222" y="621"/>
      <point x="259" y="630"/>
      <point x="296" y="650" type="curve"/>
      <point x="307" y="728" type="line"/>
      <point x="278" y="710"/>
      <point x="247" y="699"/>
      <point x="221" y="699" type="curve" smooth="yes"/>
      <point x="175" y="699"/>
      <point x="154" y="735"/>
      <point x="154" y="774" type="curve" smooth="yes"/>
      <point x="154" y="820"/>
      <point x="178" y="863"/>
      <point x="230" y="863" type="curve" smooth="yes"/>
      <point x="272" y="863"/>
      <point x="298" y="833"/>
      <point x="298" y="757" type="curve" smooth="yes"/>
      <point x="298" y="653"/>
      <point x="266" y="547"/>
      <point x="73" y="487" type="curve"/>
    </contour>
  </outline>
</glyph>
<glyph name="nmod" format="2">
  <advance width="377"/>
  <unicode hex="207F"/>
  <outline>
    <contour>
      <point x="112" y="727" type="curve"/>
      <point x="30" y="718" type="line"/>
      <point x="45" y="699"/>
      <point x="50" y="652"/>
      <point x="50" y="629" type="curve" smooth="yes"/>
      <point x="50" y="398" type="line"/>
      <point x="128" y="398" type="line"/>
      <point x="128" y="632" type="line"/>
      <point x="141" y="647"/>
      <point x="183" y="668"/>
      <point x="203" y="668" type="curve" smooth="yes"/>
      <point x="243" y="668"/>
      <point x="249" y="638"/>
      <point x="249" y="608" type="curve" smooth="yes"/>
      <point x="249" y="398" type="line"/>
      <point x="327" y="398" type="line"/>
      <point x="327" y="616" type="line" smooth="yes"/>
      <point x="327" y="683"/>
      <point x="304" y="729"/>
      <point x="226" y="729" type="curve" smooth="yes"/>
      <point x="191" y="729"/>
      <point x="149" y="709"/>
      <point x="123" y="686" type="curve"/>
      <point x="121" y="700"/>
      <point x="117" y="715"/>
    </contour>
  </outline>
</glyph>
<glyph name="franc" format="2">
  <advance width="530"/>
  <unicode hex="20A3"/>
  <outline>
    <contour>
      <point x="63" y="706" type="line"/>
      <point x="77" y="645" type="line"/>
      <point x="77" y="0" type="line"/>
      <point x="216" y="0" type="line"/>
      <point x="216" y="311" type="line"/>
      <point x="429" y="311" type="line"/>
      <point x="429" y="410" type="line"/>
      <point x="216" y="410" type="line"/>
      <point x="216" y="607" type="line"/>
      <point x="492" y="607" type="line"/>
      <point x="492" y="706" type="line"/>
    </contour>
    <contour>
      <point x="23" y="206" type="line"/>
      <point x="10" y="124" type="line"/>
      <point x="368" y="124" type="line"/>
      <point x="381" y="206" type="line"/>
    </contour>
  </outline>
</glyph>
<glyph name="lira" format="2">
  <advance width="581"/>
  <unicode hex="20A4"/>
  <outline>
    <contour>
      <point x="34" y="100" type="line"/>
      <point x="34" y="0" type="line"/>
      <point x="555" y="0" type="line"/>
      <point x="555" y="100" type="line"/>
      <point x="262" y="100" type="line"/>
      <point x="262" y="514" type="line"/>
      <point x="262" y="568"/>
      <point x="290" y="610"/>
      <point x="347" y="610" type="curve" smooth="yes"/>
      <point x="393" y="610"/>
      <point x="426" y="575"/>
      <point x="446" y="537" type="curve"/>
      <point x="544" y="591" type="line"/>
      <point x="497" y="665"/>
      <point x="437" y="706"/>
      <point x="348" y="706" type="curve" smooth="yes"/>
      <point x="221" y="706"/>
      <point x="127" y="633"/>
      <point x="127" y="500" type="curve"/>
      <point x="127" y="100" type="line"/>
    </contour>
    <contour>
      <point x="63" y="446" type="line"/>
      <point x="50" y="364" type="line"/>
      <point x="408" y="364" type="line"/>
      <point x="421" y="446" type="line"/>
    </contour>
    <contour>
      <point x="64" y="306" type="line"/>
      <point x="50" y="224" type="line"/>
      <point x="408" y="224" type="line"/>
      <point x="422" y="306" type="line"/>
    </contour>
  </outline>
</glyph>
<glyph name="naira" format="2">
  <advance width="714"/>
  <unicode hex="20A6"/>
  <outline>
    <contour>
      <point x="231" y="706" type="line"/>
      <point x="67" y="706" type="line"/>
      <point x="81" y="645" type="line"/>
      <point x="81" y="0" type="line"/>
      <point x="192" y="0" type="line"/>
      <point x="192" y="492" type="line" smooth="yes"/>
      <point x="192" y="514"/>
      <point x="188" y="537"/>
      <point x="186" y="559" type="curve"/>
      <point x="199" y="537"/>
      <point x="215" y="514"/>
      <point x="228" y="492" type="curve" smooth="yes"/>
      <point x="527" y="-5" type="line"/>
      <point x="635" y="-5" type="line"/>
      <point x="635" y="706" type="line"/>
      <point x="524" y="706" type="line"/>
      <point x="524" y="284" type="line" smooth="yes"/>
      <point x="524" y="259"/>
      <point x="528" y="232"/>
      <point x="530" y="207" type="curve"/>
      <point x="517" y="229"/>
      <point x="502" y="251"/>
      <point x="489" y="273" type="curve" smooth="yes"/>
    </contour>
    <contour>
      <point x="23" y="491" type="line"/>
      <point x="10" y="409" type="line"/>
      <point x="696" y="409" type="line"/>
      <point x="709" y="491" type="line"/>
    </contour>
    <contour>
      <point x="24" y="361" type="line"/>
      <point x="10" y="279" type="line"/>
      <point x="696" y="279" type="line"/>
      <point x="710" y="361" type="line"/>
    </contour>
  </outline>
</glyph>
<glyph name="peseta" format="2">
  <advance width="615"/>
  <unicode hex="20A7"/>
  <outline>
    <contour>
      <point x="71" y="706" type="line"/>
      <point x="86" y="645" type="line"/>
      <point x="86" y="0" type="line"/>
      <point x="223" y="0" type="line"/>
      <point x="223" y="288" type="line"/>
      <point x="305" y="288" type="line" smooth="yes"/>
      <point x="441" y="288"/>
      <point x="569" y="344"/>
      <point x="569" y="497" type="curve" smooth="yes"/>
      <point x="569" y="662"/>
      <point x="448" y="706"/>
      <point x="303" y="706" type="curve" smooth="yes"/>
    </contour>
    <contour>
      <point x="224" y="607" type="line"/>
      <point x="309" y="607" type="line" smooth="yes"/>
      <point x="385" y="607"/>
      <point x="423" y="570"/>
      <point x="423" y="497" type="curve" smooth="yes"/>
      <point x="423" y="426"/>
      <point x="382" y="385"/>
      <point x="308" y="385" type="curve" smooth="yes"/>
      <point x="224" y="385" type="line"/>
    </contour>
    <contour>
      <point x="20" y="208" type="line"/>
      <point x="7" y="126" type="line"/>
      <point x="365" y="126" type="line"/>
      <point x="378" y="208" type="line"/>
    </contour>
  </outline>
</glyph>
<glyph name="euro" format="2">
  <advance width="654"/>
  <unicode hex="20AC"/>
  <note>
Euro
</note>
  <outline>
    <contour>
      <point x="100" y="351" type="curve" smooth="yes"/>
      <point x="100" y="114"/>
      <point x="238" y="-12"/>
      <point x="410" y="-12" type="curve" smooth="yes"/>
      <point x="481" y="-12"/>
      <point x="549" y="11"/>
      <point x="619" y="59" type="curve"/>
      <point x="569" y="140" type="line"/>
      <point x="514" y="102"/>
      <point x="460" y="85"/>
      <point x="412" y="85" type="curve" smooth="yes"/>
      <point x="315" y="85"/>
      <point x="249" y="176"/>
      <point x="249" y="354" type="curve" smooth="yes"/>
      <point x="249" y="521"/>
      <point x="332" y="609"/>
      <point x="430" y="609" type="curve" smooth="yes"/>
      <point x="480" y="609"/>
      <point x="533" y="587"/>
      <point x="582" y="542" type="curve"/>
      <point x="609" y="666" type="line"/>
      <point x="556" y="693"/>
      <point x="490" y="706"/>
      <point x="435" y="706" type="curve" smooth="yes"/>
      <point x="261" y="706"/>
      <point x="100" y="581"/>
    </contour>
    <contour>
      <point x="53" y="446" type="line"/>
      <point x="40" y="364" type="line"/>
      <point x="553" y="364" type="line"/>
      <point x="566" y="446" type="line"/>
    </contour>
    <contour>
      <point x="31" y="306" type="line"/>
      <point x="17" y="224" type="line"/>
      <point x="530" y="224" type="line"/>
      <point x="544" y="306" type="line"/>
    </contour>
  </outline>
</glyph>
<glyph name="kip" format="2">
  <advance width="643"/>
  <unicode hex="20AD"/>
  <outline>
    <contour>
      <point x="72" y="706" type="line"/>
      <point x="86" y="645" type="line"/>
      <point x="86" y="0" type="line"/>
      <point x="224" y="0" type="line"/>
      <point x="224" y="358" type="line"/>
      <point x="457" y="0" type="line"/>
      <point x="617" y="0" type="line"/>
      <point x="358" y="399" type="line"/>
      <point x="596" y="706" type="line"/>
      <point x="468" y="706" type="line"/>
      <point x="224" y="392" type="line"/>
      <point x="224" y="706" type="line"/>
    </contour>
    <contour>
      <point x="34" y="419" type="line"/>
      <point x="20" y="337" type="line"/>
      <point x="577" y="337" type="line"/>
      <point x="591" y="419" type="line"/>
    </contour>
  </outline>
</glyph>
<glyph name="manat" format="2">
  <advance width="781"/>
  <unicode hex="20BC"/>
  <outline>
    <contour>
      <point x="570" y="0" type="line"/>
      <point x="717" y="0" type="line"/>
      <point x="717" y="330" type="line" smooth="yes"/>
      <point x="717" y="544"/>
      <point x="617" y="706"/>
      <point x="394" y="706" type="curve" smooth="yes"/>
      <point x="170" y="706"/>
      <point x="64" y="544"/>
      <point x="64" y="330" type="curve" smooth="yes"/>
      <point x="64" y="0" type="line"/>
      <point x="211" y="0" type="line"/>
      <point x="211" y="312" type="line" smooth="yes"/>
      <point x="211" y="441"/>
      <point x="237" y="607"/>
      <point x="391" y="607" type="curve" smooth="yes"/>
      <point x="545" y="607"/>
      <point x="570" y="441"/>
      <point x="570" y="312" type="curve" smooth="yes"/>
    </contour>
    <contour>
      <point x="350" y="104" type="line"/>
      <point x="432" y="91" type="line"/>
      <point x="432" y="795" type="line"/>
      <point x="350" y="808" type="line"/>
    </contour>
  </outline>
</glyph>
<glyph name="literSign" format="2">
  <advance width="462"/>
  <unicode hex="2113"/>
  <outline>
    <contour>
      <point x="264" y="770" type="curve" smooth="yes"/>
      <point x="164" y="770"/>
      <point x="93" y="708"/>
      <point x="93" y="581" type="curve" smooth="yes"/>
      <point x="93" y="116" type="line" smooth="yes"/>
      <point x="93" y="28"/>
      <point x="132" y="-10"/>
      <point x="218" y="-10" type="curve" smooth="yes"/>
      <point x="254" y="-10"/>
      <point x="301" y="0"/>
      <point x="336" y="11" type="curve"/>
      <point x="322" y="86" type="line"/>
      <point x="301" y="81"/>
      <point x="279" y="76"/>
      <point x="257" y="76" type="curve" smooth="yes"/>
      <point x="217" y="76"/>
      <point x="215" y="120"/>
      <point x="215" y="143" type="curve" smooth="yes"/>
      <point x="215" y="618" type="line" smooth="yes"/>
      <point x="215" y="659"/>
      <point x="236" y="680"/>
      <point x="257" y="680" type="curve" smooth="yes"/>
      <point x="278" y="680"/>
      <point x="300" y="659"/>
      <point x="300" y="616" type="curve" smooth="yes"/>
      <point x="300" y="435"/>
      <point x="246" y="339"/>
      <point x="17" y="263" type="curve"/>
      <point x="47" y="174" type="line"/>
      <point x="300" y="234"/>
      <point x="415" y="407"/>
      <point x="415" y="603" type="curve" smooth="yes"/>
      <point x="415" y="715"/>
      <point x="353" y="770"/>
    </contour>
  </outline>
</glyph>
<glyph name="numero" format="2">
  <advance width="1106"/>
  <unicode hex="2116"/>
  <outline>
    <contour>
      <point x="236" y="706" type="line"/>
      <point x="72" y="706" type="line"/>
      <point x="86" y="645" type="line"/>
      <point x="86" y="0" type="line"/>
      <point x="197" y="0" type="line"/>
      <point x="197" y="472" type="line" smooth="yes"/>
      <point x="197" y="494"/>
      <point x="193" y="517"/>
      <point x="191" y="539" type="curve"/>
      <point x="204" y="517"/>
      <point x="219" y="494"/>
      <point x="233" y="472" type="curve" smooth="yes"/>
      <point x="542" y="-5" type="line"/>
      <point x="650" y="-5" type="line"/>
      <point x="650" y="706" type="line"/>
      <point x="539" y="706" type="line"/>
      <point x="539" y="304" type="line" smooth="yes"/>
      <point x="539" y="279"/>
      <point x="543" y="252"/>
      <point x="545" y="227" type="curve"/>
      <point x="532" y="249"/>
      <point x="518" y="271"/>
      <point x="504" y="293" type="curve" smooth="yes"/>
    </contour>
    <contour>
      <point x="888" y="463" type="curve" smooth="yes"/>
      <point x="784" y="463"/>
      <point x="718" y="388"/>
      <point x="718" y="288" type="curve" smooth="yes"/>
      <point x="718" y="188"/>
      <point x="773" y="114"/>
      <point x="877" y="114" type="curve" smooth="yes"/>
      <point x="981" y="114"/>
      <point x="1047" y="188"/>
      <point x="1047" y="288" type="curve" smooth="yes"/>
      <point x="1047" y="388"/>
      <point x="992" y="463"/>
    </contour>
    <contour>
      <point x="882" y="408" type="curve" smooth="yes"/>
      <point x="945" y="408"/>
      <point x="958" y="337"/>
      <point x="958" y="288" type="curve" smooth="yes"/>
      <point x="958" y="239"/>
      <point x="946" y="169"/>
      <point x="883" y="169" type="curve" smooth="yes"/>
      <point x="820" y="169"/>
      <point x="807" y="238"/>
      <point x="807" y="288" type="curve" smooth="yes"/>
      <point x="807" y="337"/>
      <point x="819" y="408"/>
    </contour>
    <contour>
      <point x="752" y="58" type="line"/>
      <point x="752" y="0" type="line"/>
      <point x="1011" y="0" type="line"/>
      <point x="1011" y="58" type="line"/>
    </contour>
  </outline>
</glyph>
<glyph name="published" format="2">
  <advance width="638"/>
  <unicode hex="2117"/>
  <outline>
    <contour>
      <point x="596" y="250" type="curve" smooth="yes"/>
      <point x="596" y="402"/>
      <point x="471" y="527"/>
      <point x="319" y="527" type="curve" smooth="yes"/>
      <point x="166" y="527"/>
      <point x="42" y="403"/>
      <point x="42" y="250" type="curve" smooth="yes"/>
      <point x="42" y="97"/>
      <point x="166" y="-27"/>
      <point x="319" y="-27" type="curve" smooth="yes"/>
      <point x="471" y="-27"/>
      <point x="596" y="98"/>
    </contour>
    <contour>
      <point x="556" y="250" type="curve" smooth="yes"/>
      <point x="556" y="119"/>
      <point x="450" y="13"/>
      <point x="319" y="13" type="curve" smooth="yes"/>
      <point x="188" y="13"/>
      <point x="82" y="119"/>
      <point x="82" y="250" type="curve" smooth="yes"/>
      <point x="82" y="381"/>
      <point x="188" y="487"/>
      <point x="319" y="487" type="curve" smooth="yes"/>
      <point x="450" y="487"/>
      <point x="556" y="381"/>
    </contour>
    <contour>
      <point x="212" y="421" type="line"/>
      <point x="219" y="383" type="line"/>
      <point x="219" y="85" type="line"/>
      <point x="311" y="85" type="line"/>
      <point x="311" y="220" type="line"/>
      <point x="353" y="220" type="line" smooth="yes"/>
      <point x="415" y="220"/>
      <point x="474" y="250"/>
      <point x="474" y="320" type="curve" smooth="yes"/>
      <point x="474" y="396"/>
      <point x="418" y="421"/>
      <point x="352" y="421" type="curve" smooth="yes"/>
    </contour>
    <contour>
      <point x="312" y="365" type="line"/>
      <point x="334" y="365" type="line" smooth="yes"/>
      <point x="369" y="365"/>
      <point x="381" y="354"/>
      <point x="381" y="320" type="curve" smooth="yes"/>
      <point x="381" y="288"/>
      <point x="368" y="274"/>
      <point x="334" y="274" type="curve" smooth="yes"/>
      <point x="312" y="274" type="line"/>
    </contour>
  </outline>
</glyph>
<glyph name="emptyset" format="2">
  <advance width="536"/>
  <unicode hex="2205"/>
  <outline>
    <contour>
      <point x="37" y="173" type="line"/>
      <point x="106" y="104" type="line"/>
      <point x="157" y="155" type="line"/>
      <point x="188" y="133"/>
      <point x="226" y="121"/>
      <point x="266" y="121" type="curve" smooth="yes"/>
      <point x="377" y="121"/>
      <point x="465" y="222"/>
      <point x="465" y="332" type="curve" smooth="yes"/>
      <point x="465" y="369"/>
      <point x="455" y="405"/>
      <point x="439" y="436" type="curve"/>
      <point x="496" y="493" type="line"/>
      <point x="427" y="562" type="line"/>
      <point x="374" y="509" type="line"/>
      <point x="343" y="531"/>
      <point x="306" y="543"/>
      <point x="266" y="543" type="curve" smooth="yes"/>
      <point x="160" y="543"/>
      <point x="68" y="449"/>
      <point x="68" y="332" type="curve" smooth="yes"/>
      <point x="68" y="294"/>
      <point x="77" y="259"/>
      <point x="93" y="228" type="curve"/>
    </contour>
    <contour>
      <point x="163" y="332" type="curve" smooth="yes"/>
      <point x="163" y="405"/>
      <point x="205" y="459"/>
      <point x="267" y="459" type="curve" smooth="yes"/>
      <point x="284" y="459"/>
      <point x="299" y="455"/>
      <point x="312" y="448" type="curve"/>
      <point x="166" y="300" type="line"/>
      <point x="164" y="310"/>
      <point x="163" y="321"/>
    </contour>
    <contour>
      <point x="216" y="220" type="curve"/>
      <point x="366" y="369" type="line"/>
      <point x="369" y="358"/>
      <point x="370" y="346"/>
      <point x="370" y="334" type="curve" smooth="yes"/>
      <point x="370" y="243"/>
      <point x="316" y="205"/>
      <point x="266" y="205" type="curve" smooth="yes"/>
      <point x="250" y="205"/>
      <point x="232" y="210"/>
    </contour>
  </outline>
</glyph>
<glyph name="minus" format="2">
  <advance width="636"/>
  <unicode hex="2212"/>
  <note>
minus
</note>
  <outline>
    <contour>
      <point x="70" y="293" type="line"/>
      <point x="70" y="205" type="line"/>
      <point x="566" y="205" type="line"/>
      <point x="566" y="293" type="line"/>
    </contour>
  </outline>
</glyph>
<glyph name="radical" format="2">
  <advance width="605"/>
  <unicode hex="221A"/>
  <note>
radical
</note>
  <outline>
    <contour>
      <point x="43" y="206" type="line"/>
      <point x="191" y="-230" type="line"/>
      <point x="307" y="-230" type="line"/>
      <point x="667" y="968" type="line"/>
      <point x="569" y="968" type="line"/>
      <point x="256" y="-78" type="line"/>
      <point x="122" y="324" type="line"/>
      <point x="-78" y="257" type="line"/>
      <point x="-51" y="176" type="line"/>
    </contour>
  </outline>
</glyph>
<glyph name="integral" format="2">
  <advance width="256"/>
  <unicode hex="222B"/>
  <note>
integral
</note>
  <outline>
    <contour>
      <point x="-23" y="-147" type="curve"/>
      <point x="-23" y="-227" type="line"/>
      <point x="135" y="-227"/>
      <point x="199" y="-156"/>
      <point x="199" y="-10" type="curve" smooth="yes"/>
      <point x="199" y="549" type="line" smooth="yes"/>
      <point x="199" y="605"/>
      <point x="214" y="662"/>
      <point x="282" y="662" type="curve"/>
      <point x="282" y="742" type="line"/>
      <point x="123" y="742"/>
      <point x="77" y="666"/>
      <point x="77" y="525" type="curve" smooth="yes"/>
      <point x="77" y="-34" type="line" smooth="yes"/>
      <point x="77" y="-93"/>
      <point x="45" y="-147"/>
    </contour>
  </outline>
</glyph>
<glyph name="approxequal" format="2">
  <advance width="657"/>
  <unicode hex="2248"/>
  <note>
approxequal
</note>
  <outline>
    <contour>
      <point x="74" y="326" type="curve"/>
      <point x="144" y="281" type="line"/>
      <point x="163" y="310"/>
      <point x="191" y="340"/>
      <point x="225" y="340" type="curve" smooth="yes"/>
      <point x="280" y="340"/>
      <point x="352" y="270"/>
      <point x="441" y="270" type="curve" smooth="yes"/>
      <point x="502" y="270"/>
      <point x="556" y="320"/>
      <point x="583" y="372" type="curve"/>
      <point x="513" y="417" type="line"/>
      <point x="494" y="388"/>
      <point x="466" y="358"/>
      <point x="432" y="358" type="curve" smooth="yes"/>
      <point x="377" y="358"/>
      <point x="305" y="428"/>
      <point x="216" y="428" type="curve" smooth="yes"/>
      <point x="155" y="428"/>
      <point x="101" y="378"/>
    </contour>
    <contour>
      <point x="74" y="135" type="curve"/>
      <point x="144" y="90" type="line"/>
      <point x="163" y="119"/>
      <point x="191" y="149"/>
      <point x="225" y="149" type="curve" smooth="yes"/>
      <point x="280" y="149"/>
      <point x="352" y="79"/>
      <point x="441" y="79" type="curve" smooth="yes"/>
      <point x="502" y="79"/>
      <point x="556" y="129"/>
      <point x="583" y="181" type="curve"/>
      <point x="513" y="226" type="line"/>
      <point x="494" y="197"/>
      <point x="466" y="167"/>
      <point x="432" y="167" type="curve" smooth="yes"/>
      <point x="377" y="167"/>
      <point x="305" y="237"/>
      <point x="216" y="237" type="curve" smooth="yes"/>
      <point x="155" y="237"/>
      <point x="101" y="187"/>
    </contour>
  </outline>
</glyph>
<glyph name="notequal" format="2">
  <advance width="630"/>
  <unicode hex="2260"/>
  <note>
notequal
</note>
  <outline>
    <contour>
      <point x="243" y="0" type="line"/>
      <point x="294" y="109" type="line"/>
      <point x="565" y="109" type="line"/>
      <point x="565" y="197" type="line"/>
      <point x="336" y="197" type="line"/>
      <point x="385" y="302" type="line"/>
      <point x="565" y="302" type="line"/>
      <point x="565" y="390" type="line"/>
      <point x="427" y="390" type="line"/>
      <point x="477" y="497" type="line"/>
      <point x="379" y="497" type="line"/>
      <point x="329" y="390" type="line"/>
      <point x="67" y="390" type="line"/>
      <point x="67" y="302" type="line"/>
      <point x="288" y="302" type="line"/>
      <point x="240" y="197" type="line"/>
      <point x="67" y="197" type="line"/>
      <point x="67" y="109" type="line"/>
      <point x="199" y="109" type="line"/>
      <point x="148" y="0" type="line"/>
    </contour>
  </outline>
</glyph>
<glyph name="greaterequal" format="2">
  <advance width="630"/>
  <unicode hex="2265"/>
  <note>
greaterequal
</note>
  <outline>
    <contour>
      <point x="66" y="198" type="line"/>
      <point x="66" y="106" type="line"/>
      <point x="565" y="283" type="line"/>
      <point x="565" y="335" type="line"/>
      <point x="66" y="511" type="line"/>
      <point x="66" y="421" type="line"/>
      <point x="421" y="309" type="line"/>
    </contour>
    <contour>
      <point x="66" y="86" type="line"/>
      <point x="66" y="1" type="line"/>
      <point x="563" y="1" type="line"/>
      <point x="563" y="86" type="line"/>
    </contour>
  </outline>
</glyph>
<glyph name="fi" format="2">
  <advance width="551"/>
  <unicode hex="FB01"/>
  <note>
fi
</note>
  <outline>
    <contour>
      <point x="314" y="775" type="curve" smooth="yes"/>
      <point x="188" y="775"/>
      <point x="129" y="705"/>
      <point x="102" y="596" type="curve" smooth="yes"/>
      <point x="89" y="544"/>
      <point x="90" y="486"/>
      <point x="3" y="486" type="curve"/>
      <point x="3" y="417" type="line"/>
      <point x="85" y="417" type="line"/>
      <point x="85" y="0" type="line"/>
      <point x="206" y="0" type="line"/>
      <point x="206" y="417" type="line"/>
      <point x="383" y="417" type="line"/>
      <point x="383" y="0" type="line"/>
      <point x="503" y="0" type="line"/>
      <point x="503" y="497" type="line"/>
      <point x="206" y="497" type="line"/>
      <point x="208" y="610"/>
      <point x="223" y="694"/>
      <point x="313" y="694" type="curve" smooth="yes"/>
      <point x="346" y="694"/>
      <point x="386" y="658"/>
      <point x="393" y="600" type="curve"/>
      <point x="506" y="630" type="line"/>
      <point x="466" y="736"/>
      <point x="393" y="775"/>
    </contour>
  </outline>
</glyph>
<glyph name="fl" format="2">
  <advance width="566"/>
  <unicode hex="FB02"/>
  <note>
fl
</note>
  <outline>
    <contour>
      <point x="308" y="774" type="curve" smooth="yes"/>
      <point x="171" y="774"/>
      <point x="127" y="700"/>
      <point x="102" y="596" type="curve" smooth="yes"/>
      <point x="86" y="530"/>
      <point x="72" y="486"/>
      <point x="3" y="486" type="curve"/>
      <point x="3" y="417" type="line"/>
      <point x="85" y="417" type="line"/>
      <point x="85" y="0" type="line"/>
      <point x="205" y="0" type="line"/>
      <point x="205" y="417" type="line"/>
      <point x="304" y="417" type="line"/>
      <point x="327" y="497" type="line"/>
      <point x="205" y="497" type="line"/>
      <point x="205" y="630"/>
      <point x="235" y="694"/>
      <point x="306" y="694" type="curve" smooth="yes"/>
      <point x="358" y="694"/>
      <point x="382" y="653"/>
      <point x="382" y="616" type="curve" smooth="yes"/>
      <point x="382" y="0" type="line"/>
      <point x="504" y="0" type="line"/>
      <point x="504" y="779" type="line"/>
      <point x="407" y="745" type="line"/>
      <point x="380" y="759"/>
      <point x="350" y="774"/>
    </contour>
  </outline>
</glyph>
<glyph name="IJacute" format="2">
  <advance width="536"/>
  <outline>
    <contour>
      <point x="52" y="732" type="line"/>
      <point x="53" y="727"/>
      <point x="66" y="673"/>
      <point x="66" y="671" type="curve" smooth="yes"/>
      <point x="66" y="0" type="line"/>
      <point x="204" y="0" type="line"/>
      <point x="204" y="732" type="line"/>
    </contour>
    <contour>
      <point x="321" y="732" type="line"/>
      <point x="335" y="671" type="line"/>
      <point x="335" y="47" type="line" smooth="yes"/>
      <point x="335" y="-34"/>
      <point x="327" y="-119"/>
      <point x="230" y="-131" type="curve"/>
      <point x="250" y="-209" type="line"/>
      <point x="447" y="-200"/>
      <point x="473" y="-70"/>
      <point x="473" y="98" type="curve" smooth="yes"/>
      <point x="473" y="732" type="line"/>
    </contour>
    <contour>
      <point x="182" y="923" type="line"/>
      <point x="73" y="779" type="line"/>
      <point x="177" y="779" type="line"/>
      <point x="328" y="923" type="line"/>
    </contour>
    <contour>
      <point x="457" y="923" type="line"/>
      <point x="348" y="779" type="line"/>
      <point x="452" y="779" type="line"/>
      <point x="603" y="923" type="line"/>
    </contour>
  </outline>
</glyph>
<glyph name="acute.loclPLK.case" format="2">
  <advance width="255"/>
  <anchor x="82" y="732" name="_top"/>
  <outline>
    <contour>
      <point x="79" y="923" type="line"/>
      <point x="30" y="779" type="line"/>
      <point x="134" y="779" type="line"/>
      <point x="225" y="923" type="line"/>
    </contour>
  </outline>
</glyph>
<glyph name="baraccentmedium" format="2">
  <advance width="681"/>
  <anchor x="340" y="313" name="_center"/>
  <outline>
    <contour>
      <point x="40" y="355" type="line"/>
      <point x="40" y="270" type="line"/>
      <point x="641" y="270" type="line"/>
      <point x="641" y="355" type="line"/>
    </contour>
  </outline>
</glyph>
<glyph name="breveacute.case" format="2">
  <advance width="301"/>
  <anchor x="150" y="732" name="_top"/>
  <outline>
    <contour>
      <point x="301" y="922" type="curve"/>
      <point x="232" y="922" type="line"/>
      <point x="222" y="897"/>
      <point x="198" y="872"/>
      <point x="150" y="872" type="curve" smooth="yes"/>
      <point x="101" y="872"/>
      <point x="78" y="896"/>
      <point x="67" y="922" type="curve"/>
      <point x="0" y="922" type="line"/>
      <point x="8" y="851"/>
      <point x="49" y="782"/>
      <point x="147" y="782" type="curve" smooth="yes"/>
      <point x="251" y="782"/>
      <point x="289" y="849"/>
    </contour>
    <contour>
      <point x="194" y="1046" type="line"/>
      <point x="105" y="922" type="line"/>
      <point x="189" y="922" type="line"/>
      <point x="320" y="1046" type="line"/>
    </contour>
  </outline>
</glyph>
<glyph name="brevebelow" format="2">
  <advance width="301"/>
  <anchor x="150" y="0" name="bottom"/>
  <outline>
    <contour>
      <point x="301" y="-69" type="curve"/>
      <point x="232" y="-69" type="line"/>
      <point x="222" y="-114"/>
      <point x="198" y="-139"/>
      <point x="150" y="-139" type="curve" smooth="yes"/>
      <point x="101" y="-139"/>
      <point x="78" y="-115"/>
      <point x="67" y="-69" type="curve"/>
      <point x="0" y="-69" type="line"/>
      <point x="8" y="-160"/>
      <point x="52" y="-229"/>
      <point x="150" y="-229" type="curve" smooth="yes"/>
      <point x="254" y="-229"/>
      <point x="289" y="-162"/>
    </contour>
  </outline>
</glyph>
<glyph name="brevegrave.case" format="2">
  <advance width="301"/>
  <anchor x="151" y="732" name="_top"/>
  <outline>
    <contour>
      <point x="0" y="922" type="line"/>
      <point x="12" y="849"/>
      <point x="50" y="782"/>
      <point x="154" y="782" type="curve" smooth="yes"/>
      <point x="252" y="782"/>
      <point x="293" y="851"/>
      <point x="301" y="922" type="curve"/>
      <point x="234" y="922" type="line"/>
      <point x="223" y="896"/>
      <point x="200" y="872"/>
      <point x="151" y="872" type="curve" smooth="yes"/>
      <point x="103" y="872"/>
      <point x="79" y="897"/>
      <point x="69" y="922" type="curve"/>
    </contour>
    <contour>
      <point x="107" y="1046" type="line"/>
      <point x="-19" y="1046" type="line"/>
      <point x="112" y="922" type="line"/>
      <point x="196" y="922" type="line"/>
    </contour>
  </outline>
</glyph>
<glyph name="breveinverted.case" format="2">
  <advance width="301"/>
  <anchor x="150" y="732" name="_top"/>
  <outline>
    <contour>
      <point x="0" y="782" type="curve"/>
      <point x="69" y="782" type="line"/>
      <point x="79" y="807"/>
      <point x="103" y="832"/>
      <point x="151" y="832" type="curve" smooth="yes"/>
      <point x="200" y="832"/>
      <point x="223" y="808"/>
      <point x="234" y="782" type="curve"/>
      <point x="301" y="782" type="line"/>
      <point x="293" y="853"/>
      <point x="252" y="922"/>
      <point x="154" y="922" type="curve" smooth="yes"/>
      <point x="50" y="922"/>
      <point x="12" y="855"/>
    </contour>
  </outline>
</glyph>
<glyph name="breveinverted" format="2">
  <advance width="301"/>
  <anchor x="150" y="497" name="_top"/>
  <outline>
    <contour>
      <point x="0" y="572" type="curve"/>
      <point x="69" y="572" type="line"/>
      <point x="79" y="617"/>
      <point x="103" y="642"/>
      <point x="151" y="642" type="curve" smooth="yes"/>
      <point x="200" y="642"/>
      <point x="223" y="618"/>
      <point x="234" y="572" type="curve"/>
      <point x="301" y="572" type="line"/>
      <point x="293" y="663"/>
      <point x="254" y="732"/>
      <point x="156" y="732" type="curve" smooth="yes"/>
      <point x="52" y="732"/>
      <point x="12" y="665"/>
    </contour>
  </outline>
</glyph>
<glyph name="brevetilde.case" format="2">
  <advance width="301"/>
  <anchor x="150" y="732" name="_top"/>
  <outline>
    <contour>
      <point x="301" y="922" type="curve"/>
      <point x="232" y="922" type="line"/>
      <point x="222" y="897"/>
      <point x="198" y="872"/>
      <point x="150" y="872" type="curve" smooth="yes"/>
      <point x="101" y="872"/>
      <point x="78" y="896"/>
      <point x="67" y="922" type="curve"/>
      <point x="0" y="922" type="line"/>
      <point x="8" y="851"/>
      <point x="49" y="782"/>
      <point x="147" y="782" type="curve" smooth="yes"/>
      <point x="251" y="782"/>
      <point x="289" y="849"/>
    </contour>
    <contour>
      <point x="300" y="1073" type="curve"/>
      <point x="236" y="1073" type="line"/>
      <point x="235" y="1053"/>
      <point x="222" y="1043"/>
      <point x="205" y="1043" type="curve" smooth="yes"/>
      <point x="167" y="1043"/>
      <point x="150" y="1083"/>
      <point x="95" y="1083" type="curve" smooth="yes"/>
      <point x="27" y="1083"/>
      <point x="-1" y="1030"/>
      <point x="-1" y="966" type="curve"/>
      <point x="64" y="966" type="line"/>
      <point x="64" y="986"/>
      <point x="77" y="996"/>
      <point x="94" y="996" type="curve" smooth="yes"/>
      <point x="132" y="996"/>
      <point x="149" y="956"/>
      <point x="204" y="956" type="curve" smooth="yes"/>
      <point x="272" y="956"/>
      <point x="300" y="1009"/>
    </contour>
  </outline>
</glyph>
<glyph name="caron.alt" format="2">
  <advance width="210"/>
  <anchor x="-142" y="497" name="_topright"/>
  <outline>
    <contour>
      <point x="43" y="735" type="line"/>
      <point x="33" y="570" type="line"/>
      <point x="131" y="570" type="line"/>
      <point x="178" y="735" type="line"/>
    </contour>
  </outline>
</glyph>
<glyph name="caron.case" format="2">
  <advance width="293"/>
  <anchor x="145" y="732" name="_top"/>
  <outline>
    <contour>
      <point x="148" y="869" type="line"/>
      <point x="88" y="913" type="line"/>
      <point x="0" y="913" type="line"/>
      <point x="99" y="788" type="line"/>
      <point x="197" y="788" type="line"/>
      <point x="293" y="913" type="line"/>
      <point x="207" y="913" type="line"/>
    </contour>
  </outline>
</glyph>
<glyph name="circumflexgrave.case" format="2">
  <advance width="293"/>
  <anchor x="148" y="732" name="_top"/>
  <outline>
    <contour>
      <point x="148" y="832" type="line"/>
      <point x="207" y="788" type="line"/>
      <point x="293" y="788" type="line"/>
      <point x="197" y="913" type="line"/>
      <point x="99" y="913" type="line"/>
      <point x="0" y="788" type="line"/>
      <point x="88" y="788" type="line"/>
    </contour>
    <contour>
      <point x="134" y="1050" type="line"/>
      <point x="4" y="1050" type="line"/>
      <point x="103" y="945" type="line"/>
      <point x="191" y="945" type="line"/>
    </contour>
  </outline>
</glyph>
<glyph name="circumflexgrave" format="2">
  <advance width="293"/>
  <anchor x="148" y="497" name="_top"/>
  <outline>
    <contour>
      <point x="148" y="643" type="line"/>
      <point x="207" y="579" type="line"/>
      <point x="293" y="579" type="line"/>
      <point x="197" y="724" type="line"/>
      <point x="99" y="724" type="line"/>
      <point x="0" y="579" type="line"/>
      <point x="88" y="579" type="line"/>
    </contour>
    <contour>
      <point x="126" y="892" type="line"/>
      <point x="-9" y="892" type="line"/>
      <point x="102" y="767" type="line"/>
      <point x="195" y="767" type="line"/>
    </contour>
  </outline>
</glyph>
<glyph name="circumflexhook.case" format="2">
  <advance width="293"/>
  <anchor x="145" y="732" name="_top"/>
  <outline>
    <contour>
      <point x="145" y="832" type="line"/>
      <point x="205" y="788" type="line"/>
      <point x="293" y="788" type="line"/>
      <point x="194" y="913" type="line"/>
      <point x="96" y="913" type="line"/>
      <point x="0" y="788" type="line"/>
      <point x="86" y="788" type="line"/>
    </contour>
    <contour>
      <point x="120" y="933" type="line"/>
      <point x="165" y="933" type="line"/>
      <point x="172" y="975" type="line"/>
      <point x="215" y="976"/>
      <point x="255" y="1001"/>
      <point x="255" y="1054" type="curve" smooth="yes"/>
      <point x="255" y="1101"/>
      <point x="210" y="1125"/>
      <point x="160" y="1125" type="curve" smooth="yes"/>
      <point x="128" y="1125"/>
      <point x="94" y="1115"/>
      <point x="67" y="1097" type="curve"/>
      <point x="90" y="1050" type="line"/>
      <point x="106" y="1058"/>
      <point x="125" y="1064"/>
      <point x="140" y="1064" type="curve" smooth="yes"/>
      <point x="160" y="1064"/>
      <point x="173" y="1056"/>
      <point x="173" y="1038" type="curve" smooth="yes"/>
      <point x="173" y="1016"/>
      <point x="156" y="1010"/>
      <point x="137" y="1010" type="curve" smooth="yes"/>
      <point x="127" y="1010"/>
      <point x="116" y="1012"/>
      <point x="107" y="1015" type="curve"/>
    </contour>
  </outline>
</glyph>
<glyph name="circumflexhook" format="2">
  <advance width="293"/>
  <anchor x="145" y="497" name="_top"/>
  <outline>
    <contour>
      <point x="145" y="643" type="line"/>
      <point x="205" y="579" type="line"/>
      <point x="293" y="579" type="line"/>
      <point x="194" y="724" type="line"/>
      <point x="96" y="724" type="line"/>
      <point x="0" y="579" type="line"/>
      <point x="86" y="579" type="line"/>
    </contour>
    <contour>
      <point x="121" y="754" type="line"/>
      <point x="166" y="754" type="line"/>
      <point x="173" y="796" type="line"/>
      <point x="216" y="797"/>
      <point x="256" y="822"/>
      <point x="256" y="875" type="curve" smooth="yes"/>
      <point x="256" y="922"/>
      <point x="211" y="946"/>
      <point x="161" y="946" type="curve" smooth="yes"/>
      <point x="129" y="946"/>
      <point x="95" y="936"/>
      <point x="68" y="918" type="curve"/>
      <point x="91" y="871" type="line"/>
      <point x="107" y="879"/>
      <point x="126" y="885"/>
      <point x="141" y="885" type="curve" smooth="yes"/>
      <point x="161" y="885"/>
      <point x="174" y="877"/>
      <point x="174" y="859" type="curve" smooth="yes"/>
      <point x="174" y="837"/>
      <point x="157" y="831"/>
      <point x="138" y="831" type="curve" smooth="yes"/>
      <point x="128" y="831"/>
      <point x="117" y="833"/>
      <point x="108" y="836" type="curve"/>
    </contour>
  </outline>
</glyph>
<glyph name="circumflextilde.case" format="2">
  <advance width="293"/>
  <anchor x="145" y="732" name="_top"/>
  <outline>
    <contour>
      <point x="145" y="832" type="line"/>
      <point x="205" y="788" type="line"/>
      <point x="293" y="788" type="line"/>
      <point x="194" y="913" type="line"/>
      <point x="96" y="913" type="line"/>
      <point x="0" y="788" type="line"/>
      <point x="86" y="788" type="line"/>
    </contour>
    <contour>
      <point x="300" y="1073" type="curve"/>
      <point x="236" y="1073" type="line"/>
      <point x="235" y="1053"/>
      <point x="222" y="1043"/>
      <point x="205" y="1043" type="curve" smooth="yes"/>
      <point x="167" y="1043"/>
      <point x="150" y="1083"/>
      <point x="95" y="1083" type="curve" smooth="yes"/>
      <point x="27" y="1083"/>
      <point x="-1" y="1030"/>
      <point x="-1" y="966" type="curve"/>
      <point x="64" y="966" type="line"/>
      <point x="64" y="986"/>
      <point x="77" y="996"/>
      <point x="94" y="996" type="curve" smooth="yes"/>
      <point x="132" y="996"/>
      <point x="149" y="956"/>
      <point x="204" y="956" type="curve" smooth="yes"/>
      <point x="272" y="956"/>
      <point x="300" y="1009"/>
    </contour>
  </outline>
</glyph>
<glyph name="circumflextilde" format="2">
  <advance width="293"/>
  <anchor x="145" y="497" name="_top"/>
  <outline>
    <contour>
      <point x="145" y="643" type="line"/>
      <point x="205" y="579" type="line"/>
      <point x="293" y="579" type="line"/>
      <point x="194" y="724" type="line"/>
      <point x="96" y="724" type="line"/>
      <point x="0" y="579" type="line"/>
      <point x="86" y="579" type="line"/>
    </contour>
    <contour>
      <point x="300" y="882" type="curve"/>
      <point x="236" y="882" type="line"/>
      <point x="235" y="862"/>
      <point x="222" y="852"/>
      <point x="205" y="852" type="curve" smooth="yes"/>
      <point x="167" y="852"/>
      <point x="150" y="892"/>
      <point x="95" y="892" type="curve" smooth="yes"/>
      <point x="27" y="892"/>
      <point x="-1" y="839"/>
      <point x="-1" y="775" type="curve"/>
      <point x="64" y="775" type="line"/>
      <point x="64" y="795"/>
      <point x="77" y="805"/>
      <point x="94" y="805" type="curve" smooth="yes"/>
      <point x="132" y="805"/>
      <point x="149" y="765"/>
      <point x="204" y="765" type="curve" smooth="yes"/>
      <point x="272" y="765"/>
      <point x="300" y="818"/>
    </contour>
  </outline>
</glyph>
<glyph name="commaabove" format="2">
  <advance width="301"/>
  <anchor x="150" y="497" name="_top"/>
  <outline>
    <contour>
      <point x="141" y="796" type="curve" smooth="yes"/>
      <point x="109" y="796"/>
      <point x="84" y="769"/>
      <point x="84" y="737" type="curve" smooth="yes"/>
      <point x="84" y="692"/>
      <point x="124" y="684"/>
      <point x="124" y="663" type="curve" smooth="yes"/>
      <point x="124" y="646"/>
      <point x="99" y="615"/>
      <point x="85" y="602" type="curve"/>
      <point x="118" y="568" type="line"/>
      <point x="166" y="603"/>
      <point x="209" y="656"/>
      <point x="209" y="718" type="curve" smooth="yes"/>
      <point x="209" y="758"/>
      <point x="184" y="796"/>
    </contour>
  </outline>
</glyph>
<glyph name="commabelow" format="2">
  <advance width="235"/>
  <anchor x="113" y="0" name="_bottom"/>
  <outline>
    <contour>
      <point x="108" y="-64" type="curve" smooth="yes"/>
      <point x="76" y="-64"/>
      <point x="51" y="-91"/>
      <point x="51" y="-123" type="curve" smooth="yes"/>
      <point x="51" y="-168"/>
      <point x="91" y="-176"/>
      <point x="91" y="-197" type="curve" smooth="yes"/>
      <point x="91" y="-214"/>
      <point x="66" y="-245"/>
      <point x="52" y="-258" type="curve"/>
      <point x="85" y="-292" type="line"/>
      <point x="133" y="-257"/>
      <point x="176" y="-204"/>
      <point x="176" y="-142" type="curve" smooth="yes"/>
      <point x="176" y="-102"/>
      <point x="151" y="-64"/>
    </contour>
  </outline>
</glyph>
<glyph name="commaturnedabove" format="2">
  <advance width="301"/>
  <anchor x="150" y="497" name="_top"/>
  <outline>
    <contour>
      <point x="152" y="568" type="curve" smooth="yes"/>
      <point x="184" y="568"/>
      <point x="209" y="595"/>
      <point x="209" y="627" type="curve" smooth="yes"/>
      <point x="209" y="672"/>
      <point x="169" y="680"/>
      <point x="169" y="701" type="curve" smooth="yes"/>
      <point x="169" y="718"/>
      <point x="194" y="749"/>
      <point x="208" y="762" type="curve"/>
      <point x="175" y="796" type="line"/>
      <point x="127" y="761"/>
      <point x="84" y="708"/>
      <point x="84" y="646" type="curve" smooth="yes"/>
      <point x="84" y="606"/>
      <point x="109" y="568"/>
    </contour>
  </outline>
</glyph>
<glyph name="dblgrave.case" format="2">
  <advance width="381"/>
  <anchor x="244" y="732" name="_top"/>
  <outline>
    <contour>
      <point x="302" y="923" type="line"/>
      <point x="167" y="923" type="line"/>
      <point x="278" y="779" type="line"/>
      <point x="371" y="779" type="line"/>
    </contour>
    <contour>
      <point x="145" y="923" type="line"/>
      <point x="10" y="923" type="line"/>
      <point x="121" y="779" type="line"/>
      <point x="214" y="779" type="line"/>
    </contour>
  </outline>
</glyph>
<glyph name="dblgrave" format="2">
  <advance width="381"/>
  <anchor x="244" y="497" name="_top"/>
  <outline>
    <contour>
      <point x="302" y="735" type="line"/>
      <point x="167" y="735" type="line"/>
      <point x="278" y="570" type="line"/>
      <point x="371" y="570" type="line"/>
    </contour>
    <contour>
      <point x="145" y="735" type="line"/>
      <point x="10" y="735" type="line"/>
      <point x="121" y="570" type="line"/>
      <point x="214" y="570" type="line"/>
    </contour>
  </outline>
</glyph>
<glyph name="dieresis.case" format="2">
  <advance width="297"/>
  <anchor x="149" y="732" name="_top"/>
  <outline>
    <contour>
      <point x="126" y="852" type="curve" smooth="yes"/>
      <point x="126" y="887"/>
      <point x="98" y="915"/>
      <point x="63" y="915" type="curve" smooth="yes"/>
      <point x="28" y="915"/>
      <point x="0" y="887"/>
      <point x="0" y="852" type="curve" smooth="yes"/>
      <point x="0" y="817"/>
      <point x="28" y="789"/>
      <point x="63" y="789" type="curve" smooth="yes"/>
      <point x="98" y="789"/>
      <point x="126" y="817"/>
    </contour>
    <contour>
      <point x="297" y="852" type="curve" smooth="yes"/>
      <point x="297" y="887"/>
      <point x="268" y="915"/>
      <point x="233" y="915" type="curve" smooth="yes"/>
      <point x="199" y="915"/>
      <point x="170" y="886"/>
      <point x="170" y="852" type="curve" smooth="yes"/>
      <point x="170" y="818"/>
      <point x="199" y="789"/>
      <point x="233" y="789" type="curve" smooth="yes"/>
      <point x="268" y="789"/>
      <point x="297" y="817"/>
    </contour>
  </outline>
</glyph>
<glyph name="dieresisacute.case" format="2">
  <advance width="325"/>
  <anchor x="159" y="732" name="_top"/>
  <outline>
    <contour>
      <point x="180" y="1077" type="line"/>
      <point x="111" y="952" type="line"/>
      <point x="204" y="952" type="line"/>
      <point x="315" y="1077" type="line"/>
    </contour>
    <contour>
      <point x="136" y="852" type="curve" smooth="yes"/>
      <point x="136" y="887"/>
      <point x="108" y="915"/>
      <point x="73" y="915" type="curve" smooth="yes"/>
      <point x="38" y="915"/>
      <point x="10" y="887"/>
      <point x="10" y="852" type="curve" smooth="yes"/>
      <point x="10" y="817"/>
      <point x="38" y="789"/>
      <point x="73" y="789" type="curve" smooth="yes"/>
      <point x="108" y="789"/>
      <point x="136" y="817"/>
    </contour>
    <contour>
      <point x="307" y="852" type="curve" smooth="yes"/>
      <point x="307" y="887"/>
      <point x="278" y="915"/>
      <point x="243" y="915" type="curve" smooth="yes"/>
      <point x="209" y="915"/>
      <point x="180" y="886"/>
      <point x="180" y="852" type="curve" smooth="yes"/>
      <point x="180" y="818"/>
      <point x="209" y="789"/>
      <point x="243" y="789" type="curve" smooth="yes"/>
      <point x="278" y="789"/>
      <point x="307" y="817"/>
    </contour>
  </outline>
</glyph>
<glyph name="dieresisacute" format="2">
  <advance width="331"/>
  <anchor x="159" y="497" name="_top"/>
  <outline>
    <contour>
      <point x="186" y="878" type="line"/>
      <point x="117" y="753" type="line"/>
      <point x="210" y="753" type="line"/>
      <point x="321" y="878" type="line"/>
    </contour>
    <contour>
      <point x="136" y="652" type="curve" smooth="yes"/>
      <point x="136" y="687"/>
      <point x="108" y="715"/>
      <point x="73" y="715" type="curve" smooth="yes"/>
      <point x="38" y="715"/>
      <point x="10" y="687"/>
      <point x="10" y="652" type="curve" smooth="yes"/>
      <point x="10" y="617"/>
      <point x="38" y="589"/>
      <point x="73" y="589" type="curve" smooth="yes"/>
      <point x="108" y="589"/>
      <point x="136" y="617"/>
    </contour>
    <contour>
      <point x="307" y="652" type="curve" smooth="yes"/>
      <point x="307" y="687"/>
      <point x="278" y="715"/>
      <point x="243" y="715" type="curve" smooth="yes"/>
      <point x="209" y="715"/>
      <point x="180" y="686"/>
      <point x="180" y="652" type="curve" smooth="yes"/>
      <point x="180" y="618"/>
      <point x="209" y="589"/>
      <point x="243" y="589" type="curve" smooth="yes"/>
      <point x="278" y="589"/>
      <point x="307" y="617"/>
    </contour>
  </outline>
</glyph>
<glyph name="dieresisbelow" format="2">
  <advance width="301"/>
  <anchor x="150" y="0" name="bottom"/>
  <outline>
    <contour>
      <point x="128" y="-132" type="curve" smooth="yes"/>
      <point x="128" y="-97"/>
      <point x="100" y="-69"/>
      <point x="65" y="-69" type="curve" smooth="yes"/>
      <point x="30" y="-69"/>
      <point x="2" y="-97"/>
      <point x="2" y="-132" type="curve" smooth="yes"/>
      <point x="2" y="-167"/>
      <point x="30" y="-195"/>
      <point x="65" y="-195" type="curve" smooth="yes"/>
      <point x="100" y="-195"/>
      <point x="128" y="-167"/>
    </contour>
    <contour>
      <point x="299" y="-132" type="curve" smooth="yes"/>
      <point x="299" y="-97"/>
      <point x="270" y="-69"/>
      <point x="235" y="-69" type="curve" smooth="yes"/>
      <point x="201" y="-69"/>
      <point x="172" y="-98"/>
      <point x="172" y="-132" type="curve" smooth="yes"/>
      <point x="172" y="-166"/>
      <point x="201" y="-195"/>
      <point x="235" y="-195" type="curve" smooth="yes"/>
      <point x="270" y="-195"/>
      <point x="299" y="-167"/>
    </contour>
  </outline>
</glyph>
<glyph name="dieresiscaron.case" format="2">
  <advance width="297"/>
  <anchor x="149" y="732" name="_top"/>
  <outline>
    <contour>
      <point x="126" y="852" type="curve" smooth="yes"/>
      <point x="126" y="887"/>
      <point x="98" y="915"/>
      <point x="63" y="915" type="curve" smooth="yes"/>
      <point x="28" y="915"/>
      <point x="0" y="887"/>
      <point x="0" y="852" type="curve" smooth="yes"/>
      <point x="0" y="817"/>
      <point x="28" y="789"/>
      <point x="63" y="789" type="curve" smooth="yes"/>
      <point x="98" y="789"/>
      <point x="126" y="817"/>
    </contour>
    <contour>
      <point x="297" y="852" type="curve" smooth="yes"/>
      <point x="297" y="887"/>
      <point x="268" y="915"/>
      <point x="233" y="915" type="curve" smooth="yes"/>
      <point x="199" y="915"/>
      <point x="170" y="886"/>
      <point x="170" y="852" type="curve" smooth="yes"/>
      <point x="170" y="818"/>
      <point x="199" y="789"/>
      <point x="233" y="789" type="curve" smooth="yes"/>
      <point x="268" y="789"/>
      <point x="297" y="817"/>
    </contour>
    <contour>
      <point x="151" y="1027" type="line"/>
      <point x="91" y="1071" type="line"/>
      <point x="3" y="1071" type="line"/>
      <point x="102" y="946" type="line"/>
      <point x="200" y="946" type="line"/>
      <point x="296" y="1071" type="line"/>
      <point x="210" y="1071" type="line"/>
    </contour>
  </outline>
</glyph>
<glyph name="dieresiscaron" format="2">
  <advance width="315"/>
  <anchor x="157" y="497" name="_top"/>
  <outline>
    <contour>
      <point x="158" y="840" type="line"/>
      <point x="98" y="904" type="line"/>
      <point x="10" y="904" type="line"/>
      <point x="109" y="759" type="line"/>
      <point x="207" y="759" type="line"/>
      <point x="303" y="904" type="line"/>
      <point x="217" y="904" type="line"/>
    </contour>
    <contour>
      <point x="134" y="652" type="curve" smooth="yes"/>
      <point x="134" y="687"/>
      <point x="106" y="715"/>
      <point x="71" y="715" type="curve" smooth="yes"/>
      <point x="36" y="715"/>
      <point x="8" y="687"/>
      <point x="8" y="652" type="curve" smooth="yes"/>
      <point x="8" y="617"/>
      <point x="36" y="589"/>
      <point x="71" y="589" type="curve" smooth="yes"/>
      <point x="106" y="589"/>
      <point x="134" y="617"/>
    </contour>
    <contour>
      <point x="305" y="652" type="curve" smooth="yes"/>
      <point x="305" y="687"/>
      <point x="276" y="715"/>
      <point x="241" y="715" type="curve" smooth="yes"/>
      <point x="207" y="715"/>
      <point x="178" y="686"/>
      <point x="178" y="652" type="curve" smooth="yes"/>
      <point x="178" y="618"/>
      <point x="207" y="589"/>
      <point x="241" y="589" type="curve" smooth="yes"/>
      <point x="276" y="589"/>
      <point x="305" y="617"/>
    </contour>
  </outline>
</glyph>
<glyph name="dotaccentmacron.case" format="2">
  <advance width="315"/>
  <anchor x="157" y="732" name="_top"/>
  <outline>
    <contour>
      <point x="10" y="1029" type="line"/>
      <point x="10" y="955" type="line"/>
      <point x="305" y="955" type="line"/>
      <point x="305" y="1029" type="line"/>
    </contour>
    <contour>
      <point x="220" y="852" type="curve" smooth="yes"/>
      <point x="220" y="887"/>
      <point x="191" y="915"/>
      <point x="156" y="915" type="curve" smooth="yes"/>
      <point x="122" y="915"/>
      <point x="93" y="886"/>
      <point x="93" y="852" type="curve" smooth="yes"/>
      <point x="93" y="818"/>
      <point x="122" y="789"/>
      <point x="156" y="789" type="curve" smooth="yes"/>
      <point x="191" y="789"/>
      <point x="220" y="817"/>
    </contour>
  </outline>
</glyph>
<glyph name="f_f" format="2">
  <advance width="558"/>
  <outline>
    <contour>
      <point x="309" y="776" type="curve" smooth="yes"/>
      <point x="262" y="776"/>
      <point x="208" y="762"/>
      <point x="172" y="730" type="curve" smooth="yes"/>
      <point x="103" y="666"/>
      <point x="105" y="616"/>
      <point x="87" y="532" type="curve" smooth="yes"/>
      <point x="78" y="490"/>
      <point x="31" y="488"/>
      <point x="3" y="488" type="curve"/>
      <point x="3" y="417" type="line"/>
      <point x="85" y="417" type="line"/>
      <point x="85" y="-1" type="line"/>
      <point x="205" y="-1" type="line"/>
      <point x="205" y="417" type="line"/>
      <point x="304" y="417" type="line"/>
      <point x="407" y="497" type="line"/>
      <point x="205" y="497" type="line"/>
      <point x="205" y="633"/>
      <point x="232" y="694"/>
      <point x="314" y="694" type="curve" smooth="yes"/>
      <point x="334" y="694"/>
      <point x="359" y="684"/>
      <point x="376" y="672" type="curve"/>
      <point x="408" y="753" type="line"/>
      <point x="382" y="769"/>
      <point x="339" y="776"/>
    </contour>
    <contour>
      <point x="579" y="776" type="curve" smooth="yes"/>
      <point x="532" y="776"/>
      <point x="478" y="762"/>
      <point x="442" y="730" type="curve" smooth="yes"/>
      <point x="373" y="666"/>
      <point x="377" y="616"/>
      <point x="357" y="532" type="curve" smooth="yes"/>
      <point x="348" y="494"/>
      <point x="301" y="497"/>
      <point x="273" y="497" type="curve"/>
      <point x="273" y="417" type="line"/>
      <point x="355" y="417" type="line"/>
      <point x="355" y="-1" type="line"/>
      <point x="475" y="-1" type="line"/>
      <point x="475" y="417" type="line"/>
      <point x="574" y="417" type="line"/>
      <point x="597" y="497" type="line"/>
      <point x="475" y="497" type="line"/>
      <point x="475" y="633"/>
      <point x="502" y="694"/>
      <point x="584" y="694" type="curve" smooth="yes"/>
      <point x="604" y="694"/>
      <point x="629" y="684"/>
      <point x="646" y="672" type="curve"/>
      <point x="678" y="753" type="line"/>
      <point x="652" y="769"/>
      <point x="609" y="776"/>
    </contour>
  </outline>
</glyph>
<glyph name="f_f_l" format="2">
  <advance width="836"/>
  <outline>
    <contour>
      <point x="309" y="776" type="curve" smooth="yes"/>
      <point x="262" y="776"/>
      <point x="208" y="762"/>
      <point x="172" y="730" type="curve" smooth="yes"/>
      <point x="103" y="666"/>
      <point x="105" y="616"/>
      <point x="87" y="532" type="curve" smooth="yes"/>
      <point x="78" y="490"/>
      <point x="31" y="488"/>
      <point x="3" y="488" type="curve"/>
      <point x="3" y="417" type="line"/>
      <point x="85" y="417" type="line"/>
      <point x="85" y="-1" type="line"/>
      <point x="205" y="-1" type="line"/>
      <point x="205" y="417" type="line"/>
      <point x="304" y="417" type="line"/>
      <point x="407" y="497" type="line"/>
      <point x="205" y="497" type="line"/>
      <point x="205" y="633"/>
      <point x="232" y="694"/>
      <point x="314" y="694" type="curve" smooth="yes"/>
      <point x="334" y="694"/>
      <point x="359" y="684"/>
      <point x="376" y="672" type="curve"/>
      <point x="408" y="753" type="line"/>
      <point x="382" y="769"/>
      <point x="339" y="776"/>
    </contour>
    <contour>
      <point x="578" y="774" type="curve" smooth="yes"/>
      <point x="441" y="774"/>
      <point x="397" y="700"/>
      <point x="372" y="596" type="curve" smooth="yes"/>
      <point x="356" y="530"/>
      <point x="342" y="497"/>
      <point x="273" y="497" type="curve"/>
      <point x="273" y="417" type="line"/>
      <point x="355" y="417" type="line"/>
      <point x="355" y="0" type="line"/>
      <point x="475" y="0" type="line"/>
      <point x="475" y="417" type="line"/>
      <point x="574" y="417" type="line"/>
      <point x="597" y="497" type="line"/>
      <point x="475" y="497" type="line"/>
      <point x="475" y="630"/>
      <point x="505" y="694"/>
      <point x="576" y="694" type="curve" smooth="yes"/>
      <point x="628" y="694"/>
      <point x="652" y="653"/>
      <point x="652" y="616" type="curve" smooth="yes"/>
      <point x="652" y="0" type="line"/>
      <point x="774" y="0" type="line"/>
      <point x="774" y="779" type="line"/>
      <point x="677" y="745" type="line"/>
      <point x="650" y="759"/>
      <point x="620" y="774"/>
    </contour>
  </outline>
</glyph>
<glyph name="f_iacute" format="2">
  <advance width="574"/>
  <outline>
    <contour>
      <point x="309" y="775" type="curve" smooth="yes"/>
      <point x="174" y="775"/>
      <point x="114" y="696"/>
      <point x="87" y="532" type="curve" smooth="yes"/>
      <point x="80" y="490"/>
      <point x="31" y="488"/>
      <point x="3" y="488" type="curve"/>
      <point x="3" y="417" type="line"/>
      <point x="85" y="417" type="line"/>
      <point x="85" y="-1" type="line"/>
      <point x="205" y="-1" type="line"/>
      <point x="205" y="417" type="line"/>
      <point x="424" y="417" type="line"/>
      <point x="447" y="497" type="line"/>
      <point x="205" y="497" type="line"/>
      <point x="205" y="633"/>
      <point x="230" y="694"/>
      <point x="307" y="694" type="curve" smooth="yes"/>
      <point x="334" y="694"/>
      <point x="358" y="681"/>
      <point x="376" y="669" type="curve"/>
      <point x="424" y="746" type="line"/>
      <point x="394" y="765"/>
      <point x="352" y="775"/>
    </contour>
    <contour>
      <point x="388" y="443" type="curve" smooth="yes"/>
      <point x="388" y="0" type="line"/>
      <point x="508" y="0" type="line"/>
      <point x="508" y="497" type="line"/>
      <point x="377" y="497" type="line"/>
      <point x="378" y="492"/>
      <point x="388" y="445"/>
    </contour>
    <contour>
      <point x="507" y="735" type="line"/>
      <point x="398" y="570" type="line"/>
      <point x="501" y="570" type="line"/>
      <point x="652" y="735" type="line"/>
    </contour>
  </outline>
</glyph>
<glyph name="four.lf" format="2">
  <advance width="552"/>
  <outline>
    <contour>
      <point x="300" y="698" type="line"/>
      <point x="24" y="237" type="line"/>
      <point x="24" y="179" type="line"/>
      <point x="306" y="179" type="line"/>
      <point x="306" y="0" type="line"/>
      <point x="431" y="0" type="line"/>
      <point x="431" y="179" type="line"/>
      <point x="510" y="179" type="line"/>
      <point x="538" y="279" type="line"/>
      <point x="431" y="279" type="line"/>
      <point x="431" y="698" type="line"/>
    </contour>
    <contour>
      <point x="306" y="549" type="line"/>
      <point x="306" y="279" type="line"/>
      <point x="147" y="279" type="line"/>
    </contour>
  </outline>
</glyph>
<glyph name="grave.case" format="2">
  <advance width="315"/>
  <anchor x="233" y="732" name="_top"/>
  <outline>
    <contour>
      <point x="176" y="923" type="line"/>
      <point x="30" y="923" type="line"/>
      <point x="181" y="779" type="line"/>
      <point x="285" y="779" type="line"/>
    </contour>
  </outline>
</glyph>
<glyph name="hook" format="2">
  <advance width="274"/>
  <anchor x="115" y="497" name="_top"/>
  <outline>
    <contour>
      <point x="93" y="553" type="line"/>
      <point x="143" y="553" type="line"/>
      <point x="151" y="599" type="line"/>
      <point x="198" y="601"/>
      <point x="242" y="628"/>
      <point x="242" y="686" type="curve" smooth="yes"/>
      <point x="242" y="738"/>
      <point x="193" y="764"/>
      <point x="137" y="764" type="curve" smooth="yes"/>
      <point x="102" y="764"/>
      <point x="65" y="754"/>
      <point x="35" y="734" type="curve"/>
      <point x="61" y="682" type="line"/>
      <point x="78" y="691"/>
      <point x="99" y="697"/>
      <point x="116" y="697" type="curve" smooth="yes"/>
      <point x="137" y="697"/>
      <point x="152" y="689"/>
      <point x="152" y="669" type="curve" smooth="yes"/>
      <point x="152" y="645"/>
      <point x="133" y="638"/>
      <point x="112" y="638" type="curve" smooth="yes"/>
      <point x="101" y="638"/>
      <point x="89" y="640"/>
      <point x="79" y="643" type="curve"/>
    </contour>
  </outline>
</glyph>
<glyph name="hungarumlaut.case" format="2">
  <advance width="381"/>
  <anchor x="137" y="732" name="_top"/>
  <outline>
    <contour>
      <point x="79" y="923" type="line"/>
      <point x="10" y="779" type="line"/>
      <point x="103" y="779" type="line"/>
      <point x="214" y="923" type="line"/>
    </contour>
    <contour>
      <point x="236" y="923" type="line"/>
      <point x="167" y="779" type="line"/>
      <point x="260" y="779" type="line"/>
      <point x="371" y="923" type="line"/>
    </contour>
  </outline>
</glyph>
<glyph name="ijacute" format="2">
  <advance width="502"/>
  <outline>
    <contour>
      <point x="65" y="443" type="curve" smooth="yes"/>
      <point x="65" y="0" type="line"/>
      <point x="185" y="0" type="line"/>
      <point x="185" y="497" type="line"/>
      <point x="54" y="497" type="line"/>
      <point x="55" y="492"/>
      <point x="65" y="445"/>
    </contour>
    <contour>
      <point x="436" y="497" type="line"/>
      <point x="304" y="497" type="line"/>
      <point x="316" y="444" type="line"/>
      <point x="316" y="40" type="line" smooth="yes"/>
      <point x="316" y="-36"/>
      <point x="316" y="-128"/>
      <point x="240" y="-169" type="curve"/>
      <point x="262" y="-224" type="line"/>
      <point x="417" y="-206"/>
      <point x="436" y="-63"/>
      <point x="436" y="66" type="curve" smooth="yes"/>
    </contour>
    <contour>
      <point x="180" y="735" type="line"/>
      <point x="71" y="570" type="line"/>
      <point x="174" y="570" type="line"/>
      <point x="325" y="735" type="line"/>
    </contour>
    <contour>
      <point x="431" y="735" type="line"/>
      <point x="322" y="570" type="line"/>
      <point x="425" y="570" type="line"/>
      <point x="576" y="735" type="line"/>
    </contour>
  </outline>
</glyph>
<glyph name="one.lf" format="2">
  <advance width="459"/>
  <outline>
    <contour>
      <point x="63" y="99" type="line"/>
      <point x="63" y="0" type="line"/>
      <point x="427" y="0" type="line"/>
      <point x="427" y="99" type="line"/>
      <point x="308" y="99" type="line"/>
      <point x="308" y="698" type="line"/>
      <point x="230" y="698" type="line"/>
      <point x="42" y="613" type="line"/>
      <point x="63" y="549" type="line"/>
      <point x="187" y="572" type="line"/>
      <point x="187" y="99" type="line"/>
    </contour>
  </outline>
</glyph>
<glyph name="periodcentered.loclCAT.case" format="2">
  <advance width="293"/>
  <anchor x="-55" y="341" name="_center"/>
  <outline>
    <contour>
      <point x="269" y="358" type="curve" smooth="yes"/>
      <point x="269" y="399"/>
      <point x="235" y="433"/>
      <point x="193" y="433" type="curve" smooth="yes"/>
      <point x="152" y="433"/>
      <point x="118" y="399"/>
      <point x="118" y="357" type="curve" smooth="yes"/>
      <point x="118" y="316"/>
      <point x="152" y="282"/>
      <point x="194" y="282" type="curve" smooth="yes"/>
      <point x="235" y="282"/>
      <point x="269" y="316"/>
    </contour>
  </outline>
</glyph>
<glyph name="seven.lf" format="2">
  <advance width="490"/>
  <outline>
    <contour>
      <point x="56" y="697" type="line"/>
      <point x="24" y="586" type="line"/>
      <point x="343" y="586" type="line"/>
      <point x="47" y="0" type="line"/>
      <point x="188" y="0" type="line"/>
      <point x="463" y="634" type="line"/>
      <point x="463" y="697" type="line"/>
    </contour>
  </outline>
</glyph>
<glyph name="six.lf" format="2">
  <advance width="596"/>
  <outline>
    <contour>
      <point x="465" y="710" type="line"/>
      <point x="257" y="650"/>
      <point x="54" y="472"/>
      <point x="54" y="242" type="curve" smooth="yes"/>
      <point x="54" y="68"/>
      <point x="165" y="-12"/>
      <point x="291" y="-12" type="curve" smooth="yes"/>
      <point x="456" y="-12"/>
      <point x="542" y="113"/>
      <point x="542" y="229" type="curve" smooth="yes"/>
      <point x="542" y="329"/>
      <point x="478" y="421"/>
      <point x="343" y="421" type="curve" smooth="yes"/>
      <point x="297" y="421"/>
      <point x="248" y="408"/>
      <point x="200" y="380" type="curve"/>
      <point x="185" y="296" type="line"/>
      <point x="225" y="323"/>
      <point x="265" y="336"/>
      <point x="300" y="336" type="curve" smooth="yes"/>
      <point x="376" y="336"/>
      <point x="410" y="276"/>
      <point x="410" y="214" type="curve" smooth="yes"/>
      <point x="410" y="144"/>
      <point x="371" y="71"/>
      <point x="295" y="71" type="curve" smooth="yes"/>
      <point x="233" y="71"/>
      <point x="186" y="123"/>
      <point x="186" y="234" type="curve" smooth="yes"/>
      <point x="186" y="376"/>
      <point x="266" y="533"/>
      <point x="493" y="645" type="curve"/>
    </contour>
  </outline>
</glyph>
<glyph name="slashlongcomb.case" format="2">
  <anchor x="359" y="361" name="_center"/>
  <outline>
    <contour>
      <point x="133" y="-56" type="line"/>
      <point x="654" y="744" type="line"/>
      <point x="586" y="787" type="line"/>
      <point x="64" y="-15" type="line"/>
    </contour>
  </outline>
</glyph>
<glyph name="zero.tf.zero" format="2">
  <advance width="600"/>
  <outline>
    <contour>
      <point x="122" y="154" type="line"/>
      <point x="180" y="96" type="line"/>
      <point x="478" y="554" type="line"/>
      <point x="420" y="611" type="line"/>
    </contour>
    <component base="zero.lf" xOffset="-2"/>
  </outline>
</glyph>
<glyph name="zero.zero" format="2">
  <advance width="564"/>
  <outline>
    <contour>
      <point x="138" y="91" type="line"/>
      <point x="200" y="48" type="line"/>
      <point x="422" y="406" type="line"/>
      <point x="359" y="448" type="line"/>
    </contour>
    <component base="zero"/>
  </outline>
</glyph>
